<svg width="22" height="22" viewBox="0 0 22 22" fill="none" xmlns="http://www.w3.org/2000/svg">
<path d="M18.0001 21V19.125M4.00012 21V19.125" stroke="#1A80E6" stroke-width="1.28467" stroke-linecap="round"/>
<path d="M20 11C20 6.28624 20 3.92874 18.828 2.465C17.657 1 15.771 1 12 1H10C6.229 1 4.343 1 3.172 2.465C2 3.92874 2 6.28624 2 11M1 14.75C1 13.585 1 13.0025 1.152 12.5437C1.25251 12.2402 1.3999 11.9644 1.58572 11.7321C1.77155 11.4998 1.99218 11.3156 2.235 11.19C2.602 11 3.068 11 4 11H18C18.932 11 19.398 11 19.765 11.19C20.0078 11.3156 20.2284 11.4998 20.4143 11.7321C20.6001 11.9644 20.7475 12.2402 20.848 12.5437C21 13.0025 21 13.585 21 14.75C21 15.915 21 16.4975 20.848 16.9562C20.7475 17.2597 20.6001 17.5355 20.4143 17.7678C20.2284 18.0001 20.0078 18.1843 19.765 18.31C19.398 18.5 18.932 18.5 18 18.5H4C3.068 18.5 2.602 18.5 2.235 18.31C1.99218 18.1843 1.77155 18.0001 1.58572 17.7678C1.3999 17.5355 1.25251 17.2597 1.152 16.9562C1 16.4975 1 15.915 1 14.75Z" stroke="#1A80E6" stroke-width="1.28467"/>
<path d="M17.5 11V9.125C17.5 6.76751 17.5 5.59001 16.914 4.85751C16.328 4.12502 15.386 4.12502 13.5 4.12502H8.5C6.614 4.12502 5.672 4.12502 5.086 4.85751C4.5 5.59001 4.5 6.76751 4.5 9.125V11M11 4.75001V11" stroke="#1A80E6" stroke-width="1.28467"/>
</svg>
