<svg width="20" height="21" viewBox="0 0 20 21" fill="none" xmlns="http://www.w3.org/2000/svg">
<path d="M18.6667 11.6007H2.66667V4.11927C2.66589 3.83752 2.72115 3.55842 2.82924 3.29812C2.93733 3.03783 3.09611 2.8015 3.29638 2.60283L3.31304 2.5862C3.6269 2.27358 4.02986 2.06524 4.46688 1.98964C4.9039 1.91405 5.35365 1.97488 5.75471 2.16383C5.37595 2.79202 5.21851 3.52846 5.30743 4.25613C5.39635 4.98379 5.72651 5.66095 6.24546 6.17998L6.70175 6.63514L5.86188 7.47298L6.80463 8.41339L7.6445 7.5756L12.2982 2.9335L13.1381 2.09571L12.1953 1.15526L11.3554 1.99305L10.8991 1.53789C10.3528 0.99446 9.63264 0.659471 8.86416 0.591297C8.09568 0.523122 7.32758 0.726085 6.69371 1.16482C6.0253 0.743743 5.2332 0.561963 4.44752 0.649337C3.66185 0.736712 2.92932 1.08805 2.37029 1.64562L2.35363 1.66225C2.02914 1.98415 1.77189 2.36706 1.59676 2.78881C1.42162 3.21056 1.33209 3.66277 1.33333 4.11927V11.6007H0V12.9307H1.33333V14.2067C1.3333 14.3139 1.35064 14.4204 1.38467 14.5221L2.625 18.2337C2.69119 18.4324 2.81847 18.6053 2.98875 18.7278C3.15904 18.8502 3.36367 18.916 3.57358 18.9158H4.11108L3.625 20.5784H5.01387L5.5 18.9158H14.1708L14.6708 20.5784H16.0625L15.5625 18.9158H16.4263C16.6362 18.916 16.8409 18.8502 17.0112 18.7278C17.1815 18.6054 17.3088 18.4325 17.375 18.2337L18.6153 14.5221C18.6493 14.4204 18.6666 14.3139 18.6667 14.2067V12.9307H20V11.6007H18.6667ZM7.18833 2.47834C7.55566 2.11272 8.05339 1.90738 8.57231 1.90738C9.09123 1.90738 9.58896 2.11272 9.95629 2.47834L10.4125 2.9335L7.64462 5.69452L7.18833 5.23944C6.82182 4.87301 6.61599 4.37652 6.61599 3.85889C6.61599 3.34127 6.82182 2.84478 7.18833 2.47834ZM17.3333 14.1527L16.1862 17.5858H3.81383L2.66667 14.1527V12.9307H17.3333V14.1527Z" fill="#1A80E6"/>
</svg>
