<svg width="17" height="22" viewBox="0 0 17 22" fill="none" xmlns="http://www.w3.org/2000/svg">
<path d="M3.96885 5.60806H6.9377M3.96885 10.9927H12.8754M3.96885 14.0696H12.8754M3.96885 17.1465H6.9377M2.48442 20.9927H14.3598C14.7535 20.9927 15.1311 20.8306 15.4095 20.5421C15.6878 20.2536 15.8442 19.8622 15.8442 19.4542V2.53114C15.8442 2.12311 15.6878 1.7318 15.4095 1.44328C15.1311 1.15476 14.7535 0.992676 14.3598 0.992676H2.48442C2.09073 0.992676 1.71316 1.15476 1.43478 1.44328C1.15639 1.7318 1 2.12311 1 2.53114V19.4542C1 19.8622 1.15639 20.2536 1.43478 20.5421C1.71316 20.8306 2.09073 20.9927 2.48442 20.9927Z" stroke="#1A80E6" stroke-width="1.33819" stroke-linecap="round" stroke-linejoin="round"/>
<path d="M12.8754 5.99262C13.0803 5.99262 13.2465 5.82042 13.2465 5.608C13.2465 5.39559 13.0803 5.22339 12.8754 5.22339C12.6704 5.22339 12.5043 5.39559 12.5043 5.608C12.5043 5.82042 12.6704 5.99262 12.8754 5.99262Z" fill="#1A80E6" stroke="#1A80E6" stroke-width="0.669097"/>
</svg>
