<svg width="20" height="21" viewBox="0 0 20 21" fill="none" xmlns="http://www.w3.org/2000/svg">
<g clip-path="url(#clip0_9_363)">
<path d="M10 1.13076L10.2987 0.534756C10.206 0.4883 10.1037 0.464111 10 0.464111C9.89631 0.464111 9.79404 0.4883 9.70133 0.534756L10 1.13076ZM6 11.7974V11.1308H5.33333V11.7974H6ZM11.3333 11.7974H12V11.1308H11.3333V11.7974ZM0 20.4641H20V19.1308H0V20.4641ZM9.70133 0.534756L1.70133 4.53476L2.29867 5.72676L10.2987 1.72676L9.70133 0.534756ZM0 8.46409H20V7.13076H0V8.46409ZM18.2987 4.53476L10.2987 0.534756L9.70133 1.72676L17.7013 5.72676L18.2987 4.53476ZM1.33333 7.79742V19.7974H2.66667V7.79742H1.33333ZM17.3333 7.79742V19.7974H18.6667V7.79742H17.3333ZM6.66667 19.7974V11.7974H5.33333V19.7974H6.66667ZM6 12.4641H11.3333V11.1308H6V12.4641ZM10.6667 11.7974V19.7974H12V11.7974H10.6667Z" fill="#1A80E6"/>
</g>
<defs>
<clipPath id="clip0_9_363">
<rect width="20" height="20" fill="white" transform="translate(0 0.464111)"/>
</clipPath>
</defs>
</svg>
