<svg width="20" height="20" viewBox="0 0 20 20" fill="none" xmlns="http://www.w3.org/2000/svg">
<path fill-rule="evenodd" clip-rule="evenodd" d="M2.97142 3.87592C2.97123 3.94223 2.95247 4.00716 2.91728 4.06336C2.88208 4.11955 2.83186 4.16477 2.77228 4.19389C2.71271 4.22301 2.64617 4.23487 2.5802 4.22812C2.51423 4.22137 2.45147 4.19629 2.39903 4.15571L0.136466 2.39603C0.0939605 2.36282 0.0595803 2.32037 0.0359347 2.27189C0.0122892 2.22341 0 2.17018 0 2.11625C0 2.06231 0.0122892 2.00908 0.0359347 1.9606C0.0595803 1.91212 0.0939605 1.86967 0.136466 1.83646L2.39903 0.075363C2.45166 0.0346336 2.51469 0.00951558 2.58091 0.00287396C2.64713 -0.00376766 2.71388 0.00833445 2.77356 0.0377999C2.83323 0.0672654 2.88342 0.112908 2.91841 0.169522C2.95339 0.226136 2.97176 0.291441 2.97142 0.35799V1.40897H11.4933V0.35515C11.4933 0.288595 11.512 0.223376 11.5473 0.166932C11.5825 0.110488 11.6329 0.0650909 11.6928 0.0359206C11.7526 0.00675036 11.8194 -0.0050191 11.8856 0.00195486C11.9518 0.00892883 12.0147 0.0343654 12.0671 0.075363L14.3283 1.83504C14.3708 1.86825 14.4052 1.9107 14.4288 1.95918C14.4524 2.00766 14.4647 2.06089 14.4647 2.11483C14.4647 2.16876 14.4524 2.22199 14.4288 2.27047C14.4052 2.31895 14.3708 2.3614 14.3283 2.39461L12.0671 4.15571C12.0146 4.19678 11.9516 4.22223 11.8853 4.22916C11.8189 4.23608 11.752 4.22418 11.6921 4.19484C11.6323 4.1655 11.5819 4.11989 11.5467 4.06324C11.5115 4.00658 11.493 3.94118 11.4933 3.8745V2.82636H2.97142V3.87592ZM12.2035 7.08708H2.26126C2.07291 7.08708 1.89228 7.1619 1.7591 7.29507C1.62592 7.42824 1.5511 7.60886 1.5511 7.7972V17.7389C1.5511 17.9272 1.62592 18.1078 1.7591 18.241C1.89228 18.3742 2.07291 18.449 2.26126 18.449H12.2035C12.3918 18.449 12.5725 18.3742 12.7056 18.241C12.8388 18.1078 12.9136 17.9272 12.9136 17.7389V7.7972C12.9136 7.60886 12.8388 7.42824 12.7056 7.29507C12.5725 7.1619 12.3918 7.08708 12.2035 7.08708ZM2.26126 5.66684C1.69622 5.66684 1.15433 5.89129 0.754786 6.29081C0.355245 6.69033 0.130784 7.23219 0.130784 7.7972V17.7389C0.130784 18.3039 0.355245 18.8457 0.754786 19.2453C1.15433 19.6448 1.69622 19.8692 2.26126 19.8692H12.2035C12.7685 19.8692 13.3104 19.6448 13.7099 19.2453C14.1095 18.8457 14.334 18.3039 14.334 17.7389V7.7972C14.334 7.23219 14.1095 6.69033 13.7099 6.29081C13.3104 5.89129 12.7685 5.66684 12.2035 5.66684H2.26126ZM19.6445 8.50732H18.5949V17.0287H19.6445C19.7108 17.0289 19.7758 17.0477 19.832 17.0829C19.8882 17.1181 19.9334 17.1683 19.9625 17.2279C19.9916 17.2874 20.0035 17.354 19.9967 17.4199C19.99 17.4859 19.9649 17.5487 19.9243 17.6011L18.1645 19.8635C18.1313 19.906 18.0889 19.9404 18.0404 19.9641C17.9919 19.9877 17.9387 20 17.8847 20C17.8308 20 17.7776 19.9877 17.7291 19.9641C17.6806 19.9404 17.6382 19.906 17.6049 19.8635L15.8437 17.6011C15.8031 17.5486 15.778 17.4857 15.7713 17.4196C15.7646 17.3535 15.7766 17.2869 15.8059 17.2272C15.8352 17.1676 15.8806 17.1174 15.937 17.0823C15.9934 17.0472 16.0585 17.0287 16.125 17.0287H17.1746V8.50732H16.125C16.0587 8.50713 15.9937 8.48837 15.9375 8.45318C15.8813 8.41799 15.8361 8.36776 15.807 8.30819C15.7779 8.24862 15.766 8.18208 15.7727 8.11612C15.7795 8.05016 15.8046 7.9874 15.8452 7.93496L17.6049 5.67252C17.6382 5.63002 17.6806 5.59564 17.7291 5.572C17.7776 5.54835 17.8308 5.53606 17.8847 5.53606C17.9387 5.53606 17.9919 5.54835 18.0404 5.572C18.0889 5.59564 18.1313 5.63002 18.1645 5.67252L19.9257 7.93496C19.9664 7.9875 19.9915 8.05038 19.9982 8.11647C20.0049 8.18256 19.9929 8.24921 19.9636 8.30883C19.9343 8.36845 19.8889 8.41866 19.8325 8.45374C19.7761 8.48883 19.7109 8.50739 19.6445 8.50732Z" fill="#1A80E6"/>
</svg>
