<svg width="20" height="21" viewBox="0 0 20 21" fill="none" xmlns="http://www.w3.org/2000/svg">
<path d="M10.6007 0.123535L10.3332 0.36277L0.586175 10.2167L0 10.8045L0.587029 11.4197L8.70461 19.5366L9.31983 20.1235L9.90942 19.5366L19.7616 9.79031L20 9.52203V0.123535H10.6007ZM11.3219 1.83235H18.291V8.80091L9.31898 17.7192L2.4028 10.8036L11.3219 1.83235ZM15.7276 3.54117C15.501 3.54117 15.2836 3.63119 15.1234 3.79142C14.9631 3.95165 14.8731 4.16898 14.8731 4.39558C14.8731 4.62218 14.9631 4.8395 15.1234 4.99974C15.2836 5.15997 15.501 5.24999 15.7276 5.24999C15.9542 5.24999 16.1716 5.15997 16.3318 4.99974C16.492 4.8395 16.5821 4.62218 16.5821 4.39558C16.5821 4.16898 16.492 3.95165 16.3318 3.79142C16.1716 3.63119 15.9542 3.54117 15.7276 3.54117Z" fill="#1A80E6"/>
</svg>
