<svg width="21" height="22" viewBox="0 0 21 22" fill="none" xmlns="http://www.w3.org/2000/svg">
<path d="M1 10.9744C1 7.10672 1 5.17236 2.09686 3.97134C3.19279 2.76929 4.95787 2.76929 8.48711 2.76929H12.2307C15.7599 2.76929 17.525 2.76929 18.6209 3.97134C19.7178 5.17236 19.7178 7.10672 19.7178 10.9744V13.0257C19.7178 16.8934 19.7178 18.8277 18.6209 20.0288C17.525 21.2308 15.7599 21.2308 12.2307 21.2308H8.48711C4.95787 21.2308 3.19279 21.2308 2.09686 20.0288C1 18.8277 1 16.8934 1 13.0257V10.9744Z" stroke="#1A80E6" stroke-width="1.28467"/>
<path opacity="0.5" d="M5.67946 2.7693V1.23083M15.0383 2.7693V1.23083M1.46796 7.8975H19.2498" stroke="#1A80E6" stroke-width="1.28467" stroke-linecap="round"/>
<path d="M15.9742 16.1026C15.9742 16.3746 15.8756 16.6355 15.7001 16.8278C15.5246 17.0202 15.2865 17.1282 15.0383 17.1282C14.7901 17.1282 14.552 17.0202 14.3765 16.8278C14.201 16.6355 14.1024 16.3746 14.1024 16.1026C14.1024 15.8306 14.201 15.5697 14.3765 15.3774C14.552 15.185 14.7901 15.077 15.0383 15.077C15.2865 15.077 15.5246 15.185 15.7001 15.3774C15.8756 15.5697 15.9742 15.8306 15.9742 16.1026ZM15.9742 12C15.9742 12.2721 15.8756 12.5329 15.7001 12.7253C15.5246 12.9176 15.2865 13.0257 15.0383 13.0257C14.7901 13.0257 14.552 12.9176 14.3765 12.7253C14.201 12.5329 14.1024 12.2721 14.1024 12C14.1024 11.728 14.201 11.4671 14.3765 11.2748C14.552 11.0825 14.7901 10.9744 15.0383 10.9744C15.2865 10.9744 15.5246 11.0825 15.7001 11.2748C15.8756 11.4671 15.9742 11.728 15.9742 12ZM11.2948 16.1026C11.2948 16.3746 11.1961 16.6355 11.0206 16.8278C10.8451 17.0202 10.6071 17.1282 10.3589 17.1282C10.1106 17.1282 9.8726 17.0202 9.69709 16.8278C9.52158 16.6355 9.42297 16.3746 9.42297 16.1026C9.42297 15.8306 9.52158 15.5697 9.69709 15.3774C9.8726 15.185 10.1106 15.077 10.3589 15.077C10.6071 15.077 10.8451 15.185 11.0206 15.3774C11.1961 15.5697 11.2948 15.8306 11.2948 16.1026ZM11.2948 12C11.2948 12.2721 11.1961 12.5329 11.0206 12.7253C10.8451 12.9176 10.6071 13.0257 10.3589 13.0257C10.1106 13.0257 9.8726 12.9176 9.69709 12.7253C9.52158 12.5329 9.42297 12.2721 9.42297 12C9.42297 11.728 9.52158 11.4671 9.69709 11.2748C9.8726 11.0825 10.1106 10.9744 10.3589 10.9744C10.6071 10.9744 10.8451 11.0825 11.0206 11.2748C11.1961 11.4671 11.2948 11.728 11.2948 12ZM6.61531 16.1026C6.61531 16.3746 6.51671 16.6355 6.34119 16.8278C6.16568 17.0202 5.92763 17.1282 5.67942 17.1282C5.43121 17.1282 5.19316 17.0202 5.01765 16.8278C4.84213 16.6355 4.74353 16.3746 4.74353 16.1026C4.74353 15.8306 4.84213 15.5697 5.01765 15.3774C5.19316 15.185 5.43121 15.077 5.67942 15.077C5.92763 15.077 6.16568 15.185 6.34119 15.3774C6.51671 15.5697 6.61531 15.8306 6.61531 16.1026ZM6.61531 12C6.61531 12.2721 6.51671 12.5329 6.34119 12.7253C6.16568 12.9176 5.92763 13.0257 5.67942 13.0257C5.43121 13.0257 5.19316 12.9176 5.01765 12.7253C4.84213 12.5329 4.74353 12.2721 4.74353 12C4.74353 11.728 4.84213 11.4671 5.01765 11.2748C5.19316 11.0825 5.43121 10.9744 5.67942 10.9744C5.92763 10.9744 6.16568 11.0825 6.34119 11.2748C6.51671 11.4671 6.61531 11.728 6.61531 12Z" fill="#1A80E6"/>
</svg>
