<svg width="527" height="496" viewBox="0 0 527 496" fill="none" xmlns="http://www.w3.org/2000/svg">
<path d="M288.647 392.761H167.559V486.156H288.647V392.761Z" fill="#EBEBEB"/>
<path d="M258.314 485.505C258.151 485.505 258.012 464.682 258.012 438.999C258.012 413.317 258.151 392.494 258.314 392.494C258.477 392.494 258.616 413.317 258.616 438.999C258.616 464.682 258.477 485.505 258.314 485.505Z" fill="#E0E0E0"/>
<path d="M278.381 464.903H269.103V475.401H278.381V464.903Z" fill="#FAFAFA"/>
<path d="M218.261 393.005H204.507V412.933H218.261V393.005Z" fill="#E0E0E0"/>
<path d="M218.261 465.949H204.507V485.877H218.261V465.949Z" fill="#E0E0E0"/>
<path d="M508.373 369.346H355.685V487.109H508.373V369.346Z" fill="#EBEBEB"/>
<path d="M470.111 486.272C469.948 486.272 469.809 460.031 469.809 427.652C469.809 395.273 469.948 369.032 470.111 369.032C470.274 369.032 470.413 395.273 470.413 427.652C470.413 460.031 470.285 486.272 470.111 486.272Z" fill="#E0E0E0"/>
<path d="M495.422 460.299H483.714V473.53H495.422V460.299Z" fill="#FAFAFA"/>
<path d="M419.606 369.648H402.26V394.773H419.606V369.648Z" fill="#E0E0E0"/>
<path d="M419.606 461.624H402.26V486.749H419.606V461.624Z" fill="#E0E0E0"/>
<path d="M68.0954 372.811C74.2806 369.625 81.5587 369.206 88.4182 370.346C92.1038 370.95 95.9405 372.055 98.4518 374.822C100.963 377.589 101.428 382.46 98.5564 384.844C96.8357 386.262 94.4523 386.472 92.22 386.448C86.8487 386.379 80.896 385.437 76.6059 388.669C74.1527 390.518 72.525 393.575 69.6301 394.482C66.7351 395.389 63.5379 393.68 62.0264 391.099C60.6282 388.407 60.3201 385.28 61.1661 382.367C61.5084 380.349 62.3117 378.436 63.5135 376.779C64.7153 375.121 66.2832 373.763 68.0954 372.811Z" fill="#EBEBEB"/>
<path d="M53.9346 345.477C57.7132 350.872 65.061 349.093 68.4675 345.791C71.874 342.489 73.3157 337.722 74.6179 333.176C77.6175 322.771 80.6287 311.854 78.4081 301.262C77.8734 298.05 76.4611 295.048 74.3272 292.589C73.2469 291.381 71.8697 290.476 70.332 289.964C68.7944 289.452 67.1497 289.351 65.5609 289.671C61.8521 290.647 59.5501 294.321 57.8876 297.728C52.9857 307.911 50.4198 319.061 50.377 330.363C50.377 335.63 50.9699 341.14 53.9346 345.477Z" fill="#EBEBEB"/>
<path d="M43.5639 353.22C47.668 348.349 48.447 341.257 46.6216 335.153C44.7963 329.049 40.6689 323.864 35.9138 319.62C30.321 314.645 23.8132 310.807 16.7536 308.319C14.0175 307.214 11.0744 306.714 8.12683 306.854C6.6564 306.938 5.22881 307.381 3.96839 308.142C2.70797 308.904 1.65295 309.963 0.895245 311.226C-1.12774 315.074 0.81386 319.736 2.9066 323.55C6.59193 330.26 10.7981 336.67 15.4863 342.722C19.2649 347.581 23.6247 352.383 29.3333 354.581C35.0418 356.778 41.0642 356.522 44.1103 352.534" fill="#EBEBEB"/>
<path d="M53.679 426.885C53.8809 426.085 53.9978 425.267 54.0278 424.443C54.2022 422.653 54.4115 420.409 54.6789 417.746C55.0122 414.452 55.5127 411.177 56.1787 407.934C57.0523 403.968 58.246 400.08 59.748 396.307C61.2211 392.56 63.2131 389.037 65.6658 385.844C67.6708 383.247 70.2232 381.123 73.1415 379.624C75.1262 378.645 77.2529 377.986 79.443 377.67C80.2674 377.638 81.086 377.517 81.8845 377.31C81.0615 377.219 80.2311 377.219 79.4081 377.31C77.1338 377.481 74.9088 378.06 72.8392 379.019C69.7575 380.473 67.0552 382.622 64.9449 385.297C62.378 388.533 60.309 392.135 58.8062 395.982C57.306 399.8 56.139 403.74 55.3183 407.759C54.6858 411.044 54.2471 414.363 54.0045 417.7C53.7953 420.548 53.7139 422.85 53.679 424.443C53.5933 425.255 53.5933 426.073 53.679 426.885Z" fill="#E0E0E0"/>
<path d="M54.144 421.746C54.213 421.362 54.2364 420.972 54.2137 420.583C54.2137 419.723 54.2137 418.642 54.2137 417.328C54.2137 414.503 54.2137 410.41 54.3533 405.364C54.609 395.273 55.5159 384.437 57.1552 369.102C58.748 354.697 60.8756 337.943 63.1311 327.049C63.6078 324.573 64.0961 322.341 64.5612 320.387C65.0262 318.434 65.3634 316.737 65.7238 315.377C66.0842 314.016 66.2819 313.051 66.4912 312.214C66.6049 311.836 66.6713 311.446 66.6888 311.052C66.5137 311.39 66.3809 311.75 66.2935 312.121C66.0377 312.947 65.7238 313.97 65.3401 315.237C64.9565 316.504 64.4914 318.271 64.0031 320.213C63.5148 322.155 62.9567 324.387 62.4336 326.863C59.6406 339.747 57.541 352.772 56.1437 365.881C54.4695 381.228 53.7138 395.203 53.644 405.318C53.644 410.375 53.644 414.479 53.8184 417.305C53.8998 418.618 53.9696 419.7 54.0161 420.548C54.0104 420.951 54.0534 421.353 54.144 421.746Z" fill="#E0E0E0"/>
<path d="M54.2138 394.796C54.3024 393.662 54.3024 392.523 54.2138 391.389C54.0859 389.204 53.7836 386.053 53.1674 382.181C52.407 377.655 51.39 373.176 50.1213 368.765C48.6551 363.336 46.7778 358.027 44.5058 352.883C40.6159 343.405 35.0334 334.714 28.0313 327.235C26.8163 325.951 25.5192 324.747 24.1481 323.631C23.5551 323.12 22.9854 322.62 22.4971 322.224L21.0555 321.19C20.1506 320.499 19.1901 319.885 18.1838 319.353C18.021 319.574 22.2413 322.062 27.5662 327.724C34.3394 335.273 39.7735 343.923 43.6338 353.302C45.8667 358.412 47.7506 363.667 49.2726 369.032C50.5511 373.402 51.6104 377.833 52.4466 382.309C53.1442 386.134 53.6092 389.285 53.7952 391.424C53.8449 392.558 53.9849 393.685 54.2138 394.796Z" fill="#E0E0E0"/>
<path d="M26.3569 438.232L29.0542 475.239H76.5943L79.2916 438.232H26.3569Z" fill="#EBEBEB"/>
<path d="M84.9538 423.653H21.7646V438.232H84.9538V423.653Z" fill="#EBEBEB"/>
<path d="M21.7646 473.82V477.855H24.741H83.919V473.82H21.7646Z" fill="#E0E0E0"/>
<path d="M27.6473 484.528L24.7407 477.413H81.6517L78.2568 484.528H27.6473Z" fill="#E0E0E0"/>
<path d="M78.4081 450.323C78.3487 450.448 78.2745 450.565 78.1872 450.672C78.0012 450.916 77.757 451.23 77.478 451.614L74.7109 455.102L74.583 455.265L74.4668 455.102L67.6653 445.696H68.049L61.3522 455.172L61.143 455.474L60.9104 455.195L52.9696 445.743H53.4231L52.9929 446.301L45.8892 455.195L45.6451 455.497L45.4358 455.183L38.7274 445.708H39.1227L30.868 455.102L30.7285 455.276L30.6122 455.079L28.0312 450.8C27.7521 450.335 27.5428 449.951 27.3685 449.637C27.2808 449.508 27.2104 449.367 27.1592 449.219C27.268 449.33 27.3618 449.455 27.4382 449.591L28.1707 450.695L30.8796 454.962H30.6238L38.7623 445.452L38.9599 445.208L39.1459 445.464L45.9125 454.904H45.4707L52.5511 445.987C52.7022 445.801 52.8534 445.615 52.9813 445.44L53.2138 445.15L53.4463 445.429L61.3639 454.904H60.9221L67.6886 445.475L67.8862 445.196L68.0723 445.475C70.7579 449.3 73.0367 452.544 74.7342 454.986H74.49L77.3733 451.498C77.6872 451.137 77.943 450.847 78.1407 450.602C78.2229 450.503 78.3122 450.41 78.4081 450.323Z" fill="#F5F5F5"/>
<path d="M79.9546 437.988C79.9546 438.151 68.0376 438.29 53.3535 438.29C38.6694 438.29 26.7524 438.151 26.7524 437.988C26.7524 437.825 38.6578 437.697 53.3535 437.697C68.0492 437.697 79.9546 437.825 79.9546 437.988Z" fill="#F5F5F5"/>
<path d="M413.354 18.4527L403.611 18.5054L403.873 66.9866L413.616 66.9338L413.354 18.4527Z" fill="#E0E0E0"/>
<path d="M344.434 18.5818L319.206 18.7183L319.35 45.4817L344.579 45.3452L344.434 18.5818Z" fill="#EBEBEB"/>
<path d="M369.546 18.4459L344.317 18.5824L344.462 45.3458L369.691 45.2093L369.546 18.4459Z" fill="#F5F5F5"/>
<path d="M319.236 26.1248C336.009 26.2643 352.79 26.1868 369.578 25.8923C369.649 25.8923 369.717 25.8641 369.767 25.8139C369.817 25.7638 369.845 25.6958 369.845 25.6248C369.845 25.5539 369.817 25.4859 369.767 25.4358C369.717 25.3856 369.649 25.3574 369.578 25.3574C352.813 25.2644 336.001 25.3574 319.236 25.6713C319.185 25.6831 319.139 25.7119 319.106 25.7531C319.073 25.7942 319.055 25.8454 319.055 25.8981C319.055 25.9508 319.073 26.0019 319.106 26.0431C319.139 26.0843 319.185 26.1131 319.236 26.1248Z" fill="#E0E0E0"/>
<path d="M349.321 44.9003L303.479 45.1484L303.597 66.9591L349.439 66.711L349.321 44.9003Z" fill="#EBEBEB"/>
<path d="M394.941 44.6535L349.099 44.9015L349.217 66.7122L395.059 66.4642L394.941 44.6535Z" fill="#F5F5F5"/>
<path d="M303.505 51.2377C333.955 51.5749 364.509 51.2377 394.97 50.7843C395.041 50.7843 395.109 50.7561 395.159 50.706C395.209 50.6558 395.237 50.5878 395.237 50.5169C395.237 50.4459 395.209 50.3779 395.159 50.3278C395.109 50.2776 395.041 50.2495 394.97 50.2495C364.52 50.0867 333.955 50.0983 303.505 50.7726C303.444 50.7726 303.385 50.7971 303.341 50.8408C303.297 50.8844 303.273 50.9435 303.273 51.0052C303.273 51.0669 303.297 51.126 303.341 51.1696C303.385 51.2132 303.444 51.2377 303.505 51.2377Z" fill="#E0E0E0"/>
<path d="M463.961 66.9797H286.357V74.7926H463.961V66.9797Z" fill="#E0E0E0"/>
<path d="M322.642 70.735H315.434V97.3942H322.642V70.735Z" fill="#E0E0E0"/>
<path d="M430.267 70.735H423.059V97.3942H430.267V70.735Z" fill="#E0E0E0"/>
<path d="M422.859 0.368826L413.116 0.421539L413.477 67.0976L423.22 67.0449L422.859 0.368826Z" fill="#EBEBEB"/>
<path d="M438.075 12.7848L422.938 12.8667L423.23 66.9051L438.368 66.8232L438.075 12.7848Z" fill="#F5F5F5"/>
<path d="M437.976 23.2182C432.944 23.5736 427.893 23.5736 422.861 23.2182C427.894 22.8782 432.943 22.8782 437.976 23.2182Z" fill="#E0E0E0"/>
<path d="M437.976 21.0092C435.462 21.2636 432.933 21.3491 430.407 21.265C427.881 21.3486 425.353 21.2632 422.838 21.0092C427.87 20.6538 432.921 20.6538 437.953 21.0092H437.976Z" fill="#E0E0E0"/>
<path d="M437.976 58.7134C432.944 59.0689 427.893 59.0689 422.861 58.7134C427.894 58.3734 432.943 58.3734 437.976 58.7134Z" fill="#E0E0E0"/>
<path d="M437.976 56.4463C432.943 56.7863 427.894 56.7863 422.861 56.4463C427.893 56.0909 432.944 56.0909 437.976 56.4463Z" fill="#E0E0E0"/>
<path d="M430.651 51.4935C430.512 51.4935 430.396 46.0407 430.396 39.3207C430.396 32.6007 430.512 27.1363 430.651 27.1363C430.791 27.1363 430.919 32.589 430.919 39.3207C430.919 46.0523 430.802 51.4935 430.651 51.4935Z" fill="#E0E0E0"/>
<path d="M454.625 26.0783H438.15V66.8635H454.625V26.0783Z" fill="#EBEBEB"/>
<path d="M417.839 14.5798C419.387 14.5798 420.641 13.3254 420.641 11.7779C420.641 10.2304 419.387 8.97595 417.839 8.97595C416.292 8.97595 415.037 10.2304 415.037 11.7779C415.037 13.3254 416.292 14.5798 417.839 14.5798Z" fill="#E0E0E0"/>
<path d="M418.711 19.4861H416.979V59.1552H418.711V19.4861Z" fill="#E0E0E0"/>
<path d="M513.617 486.47C513.617 486.644 401.864 486.772 264.057 486.772C126.25 486.772 14.4746 486.644 14.4746 486.47C14.4746 486.295 126.204 486.167 264.057 486.167C401.911 486.167 513.617 486.307 513.617 486.47Z" fill="#263238"/>
<path d="M146.864 59.783C152.347 66.4927 155.316 74.9058 155.258 83.5705C155.2 88.4768 154.293 93.8831 157.153 97.8709C159.316 100.894 163.269 102.417 165.024 105.695C167.14 109.637 165.338 114.624 166.641 118.903C168.478 124.972 175.593 127.518 179.813 132.25C181.612 134.342 182.871 136.844 183.479 139.536C184.087 142.227 184.026 145.027 183.301 147.69C182.532 150.341 181.142 152.771 179.245 154.777C177.348 156.783 175 158.307 172.396 159.223C169.615 160.319 166.513 160.269 163.769 159.084C160.92 157.665 159.118 154.747 157.723 151.899C154.921 146.295 130.308 116.008 128.913 109.893" fill="#263238"/>
<path d="M128.959 52.6444C118.891 51.0167 109.195 57.7019 104.974 66.9797C100.754 76.2575 100.614 86.7445 100.324 96.9756C100.033 107.207 99.2889 117.81 94.0919 126.576C90.7901 132.145 85.6745 137.04 84.8723 143.446C84.1514 149.19 87.1278 154.979 86.1395 160.688C85.2792 165.664 81.489 169.989 81.6401 175.023C81.8262 181.092 88.0695 185.661 94.1268 185.824C100.184 185.987 105.858 182.813 110.613 179.046C118.36 172.895 124.56 165.015 128.715 156.037" fill="#263238"/>
<path d="M112.392 76.6412C112.076 74.1085 112.271 71.5381 112.968 69.0825C113.664 66.627 114.846 64.3363 116.445 62.3464C118.043 60.3565 120.025 58.708 122.272 57.4988C124.52 56.2895 126.988 55.5441 129.529 55.3069C139.679 54.3302 148.713 61.899 150.236 71.9906C151.573 80.8383 152.712 89.7673 152.677 93.0111C152.549 102.789 146.864 106.591 144.539 107.742C143.702 108.042 142.838 108.256 141.958 108.381V108.451L144.12 119.682C145.109 127.041 141.004 133.633 133.657 134.668C126.309 135.703 120.53 130.087 119.403 122.728L112.392 76.6412Z" fill="#FFBE9D"/>
<path d="M148.236 76.2691C148.073 76.5017 146.782 75.8157 145.132 76.0599C143.481 76.304 142.376 77.3039 142.167 77.1295C141.958 76.9551 142.167 76.6644 142.678 76.1994C143.314 75.58 144.127 75.1737 145.004 75.0367C145.864 74.9041 146.744 75.0508 147.515 75.4553C148.096 75.8273 148.317 76.1761 148.236 76.2691Z" fill="#263238"/>
<path d="M133.517 79.8501C133.354 80.0826 132.064 79.385 130.401 79.6291C128.739 79.8733 127.657 80.8848 127.448 80.7104C127.239 80.536 127.448 80.2337 127.96 79.7803C128.595 79.161 129.408 78.7546 130.285 78.6177C131.146 78.495 132.025 78.6455 132.796 79.0478C133.366 79.4082 133.598 79.7454 133.517 79.8501Z" fill="#263238"/>
<path d="M139.551 88.7209C140.383 88.3209 141.262 88.0279 142.167 87.849C142.586 87.7443 142.969 87.6048 143.004 87.3025C142.966 86.8778 142.805 86.4734 142.539 86.1399L140.807 83.0473C138.4 78.7223 136.598 75.1414 136.772 75.0367C136.947 74.9321 139.098 78.3851 141.423 82.7101C142.016 83.7797 142.586 84.8029 143.097 85.7678C143.435 86.2407 143.599 86.8156 143.562 87.3955C143.524 87.5542 143.449 87.7018 143.344 87.8268C143.24 87.9519 143.107 88.051 142.958 88.1164C142.731 88.2156 142.493 88.2859 142.248 88.3256C141.37 88.5745 140.464 88.7074 139.551 88.7209Z" fill="#263238"/>
<path d="M141.865 108.393C141.865 108.393 135.551 109.846 126.855 106.207C126.855 106.207 130.61 114.287 142.458 111.416L141.865 108.393Z" fill="#EB996E"/>
<path d="M132.668 75.5134C132.575 75.9901 130.89 76.0134 128.983 76.5366C127.076 77.0598 125.576 77.8038 125.262 77.4434C125.123 77.269 125.332 76.804 125.902 76.2808C126.669 75.6247 127.575 75.1518 128.552 74.898C129.529 74.6442 130.551 74.6161 131.541 74.8159C132.308 74.9903 132.668 75.2925 132.668 75.5134Z" fill="#263238"/>
<path d="M146.876 72.6068C146.643 73.0254 145.446 72.8045 144.074 72.9789C142.702 73.1533 141.574 73.6067 141.249 73.2463C141.109 73.0719 141.249 72.6766 141.691 72.2464C142.3 71.7059 143.065 71.3722 143.876 71.2931C144.677 71.1966 145.488 71.3466 146.202 71.7232C146.76 72.0371 146.981 72.3976 146.876 72.6068Z" fill="#263238"/>
<path d="M129.924 81.9893C129.95 82.1692 130.011 82.3423 130.104 82.4984C130.197 82.6545 130.32 82.7906 130.466 82.8988C130.612 83.007 130.778 83.0851 130.954 83.1285C131.131 83.172 131.314 83.1799 131.494 83.1519C131.668 83.1318 131.837 83.0772 131.991 82.9913C132.144 82.9053 132.278 82.7897 132.387 82.6512C132.495 82.5127 132.574 82.3541 132.621 82.1846C132.667 82.0151 132.679 81.838 132.656 81.6638C132.602 81.3017 132.406 80.9761 132.112 80.7582C131.818 80.5403 131.449 80.4478 131.087 80.5011C130.912 80.5197 130.742 80.5733 130.588 80.6588C130.434 80.7443 130.299 80.8599 130.19 80.9988C130.082 81.1376 130.002 81.2969 129.957 81.467C129.911 81.6372 129.9 81.8148 129.924 81.9893Z" fill="#263238"/>
<path d="M144.585 78.8153C144.64 79.1773 144.836 79.503 145.13 79.7209C145.424 79.9388 145.793 80.0312 146.155 79.9779C146.33 79.9578 146.498 79.9032 146.652 79.8172C146.805 79.7313 146.94 79.6157 147.048 79.4772C147.156 79.3387 147.236 79.1801 147.282 79.0106C147.328 78.8411 147.34 78.664 147.318 78.4898C147.263 78.1277 147.067 77.8021 146.773 77.5842C146.479 77.3662 146.11 77.2738 145.748 77.3271C145.573 77.3457 145.403 77.3993 145.249 77.4848C145.095 77.5703 144.96 77.6859 144.851 77.8248C144.743 77.9636 144.663 78.1228 144.618 78.293C144.572 78.4632 144.561 78.6408 144.585 78.8153Z" fill="#263238"/>
<path d="M142.155 91.9298C141.699 91.7878 141.207 91.81 140.765 91.9927C140.324 92.1753 139.96 92.5068 139.737 92.9297C139.524 93.318 139.438 93.763 139.49 94.2028C139.542 94.6425 139.73 95.055 140.028 95.3828C140.345 95.6941 140.762 95.8825 141.205 95.9145C141.648 95.9464 142.088 95.8198 142.446 95.5572C142.894 95.1489 143.166 94.5815 143.202 93.9761C143.281 93.421 143.148 92.8565 142.83 92.3949C142.666 92.1692 142.433 92.0036 142.166 91.9237C141.899 91.8438 141.614 91.8542 141.353 91.9531" fill="#EB996E"/>
<path d="M148.945 64.0266C148.033 60.343 145.756 57.1433 142.574 55.0744C139.97 53.1934 136.877 52.1071 133.668 51.9469C130.44 51.8079 127.288 52.9533 124.902 55.1325C123.209 56.8106 122.241 59.0853 122.205 61.4688L122.391 59.8412C121.902 61.1656 121.902 62.6208 122.391 63.9453C122.658 64.6545 122.984 65.3753 123.263 66.0845C124.095 68.1339 125.639 69.8142 127.611 70.8164C128.504 71.2954 129.504 71.5395 130.518 71.5256C131.025 71.5154 131.524 71.3947 131.98 71.1718C132.436 70.9489 132.837 70.6292 133.157 70.2351C133.879 68.9748 134.103 67.49 133.785 66.0729C134.548 67.4733 135.636 68.6696 136.959 69.5608C137.634 69.9923 138.437 70.1781 139.233 70.0871C140.029 69.996 140.77 69.6336 141.33 69.0608C142.283 67.8982 141.911 66.0612 141.33 64.6196C142.23 65.9794 143.49 67.0622 144.969 67.7471C145.358 67.9704 145.79 68.1106 146.236 68.1586C146.682 68.2066 147.134 68.1615 147.562 68.0261C147.904 67.8564 148.203 67.6113 148.437 67.3092C148.67 67.0071 148.832 66.656 148.91 66.2821C149.083 65.5414 149.095 64.7723 148.945 64.0266Z" fill="#263238"/>
<path d="M140.54 67.1192C140.435 67.1192 140.458 65.7357 140.005 63.6313C139.482 60.835 138.076 58.28 135.994 56.3416C134.849 55.3009 133.469 54.5547 131.971 54.1675C130.744 53.8665 129.467 53.8347 128.227 54.0745C127.084 54.3416 125.993 54.7932 124.995 55.4115C124.995 55.4115 125.193 55.1209 125.704 54.7488C126.439 54.2353 127.263 53.8645 128.134 53.6559C129.438 53.3507 130.795 53.3507 132.099 53.6559C133.705 54.057 135.185 54.8568 136.401 55.9812C138.581 57.9996 140.004 60.7033 140.435 63.643C140.573 64.512 140.643 65.3905 140.644 66.2705C140.659 66.5573 140.623 66.8445 140.54 67.1192Z" fill="#455A64"/>
<path d="M247.618 202.671L202.915 184.941C202.915 184.941 180.022 154.91 180.499 154.328L164.42 171.931L187.789 203.543L241.956 216.239L251.257 213.658C249.211 203.787 247.618 202.671 247.618 202.671Z" fill="#FFBE9D"/>
<path d="M150.189 116.996L144.097 114.671L117.798 118.008V122.658L117.042 122.751C111.373 123.957 105.936 126.069 100.94 129.006C96.2601 131.863 92.5416 136.054 90.2626 141.041C87.9836 146.028 87.2482 151.583 88.151 156.991C89.2207 163.641 91.2901 171.721 95.2896 176.395C102.928 185.336 109.904 174.291 109.904 174.291C109.904 174.291 114.694 185.22 114.415 190.393C114.182 194.73 112.276 203.752 111.659 206.566C111.634 206.678 111.632 206.794 111.653 206.908C111.674 207.021 111.718 207.129 111.783 207.225C111.847 207.32 111.93 207.402 112.027 207.465C112.123 207.527 112.232 207.569 112.345 207.589L167.826 217.855L168.094 204.287L166.327 148.48L163.827 126.809C163.827 126.809 163.908 116.461 150.189 116.996Z" fill="#1A80E5"/>
<path d="M162.978 123.205L184.138 153.77L167.105 174.512L162.978 123.205Z" fill="#1A80E5"/>
<path d="M167.547 187.522C167.471 186.866 167.444 186.205 167.466 185.545C167.466 184.173 167.466 182.371 167.396 180.174C167.293 174.276 166.87 168.388 166.129 162.537C165.257 155.677 163.92 149.55 162.908 145.097L161.676 139.865C161.497 139.232 161.365 138.587 161.281 137.935C161.545 138.539 161.755 139.166 161.909 139.807C162.269 140.97 162.757 142.795 163.315 145.004C164.817 150.74 165.958 156.565 166.734 162.444C167.481 168.32 167.846 174.238 167.826 180.162C167.826 182.487 167.768 184.278 167.699 185.545C167.704 186.207 167.654 186.868 167.547 187.522Z" fill="#263238"/>
<path d="M115.461 141.051C115.461 141.144 113.857 141.132 111.287 141.26C107.935 141.442 104.6 141.874 101.312 142.551C98.0243 143.241 94.7913 144.17 91.6388 145.33C89.2205 146.225 87.7672 146.888 87.7207 146.795C88.0187 146.561 88.3473 146.369 88.6973 146.225C89.3368 145.876 90.2901 145.434 91.4876 144.934C97.7612 142.344 104.466 140.955 111.252 140.842C112.555 140.842 113.578 140.842 114.333 140.912C114.714 140.899 115.095 140.946 115.461 141.051Z" fill="#FAFAFA"/>
<path d="M164.466 155.038C163.616 155.347 162.729 155.542 161.827 155.619C157.528 156.247 153.172 156.395 148.841 156.061C147.936 156.045 147.037 155.912 146.167 155.665C147.064 155.586 147.966 155.586 148.864 155.665C150.515 155.665 152.805 155.665 155.328 155.665C157.851 155.665 160.13 155.41 161.781 155.259C162.667 155.104 163.566 155.03 164.466 155.038Z" fill="#FAFAFA"/>
<path d="M174.174 141.214C172.893 142.695 171.357 143.935 169.64 144.876C168.019 145.972 166.21 146.76 164.304 147.201C164.234 147.039 166.629 146.039 169.326 144.318C172.024 142.597 174.058 141.074 174.174 141.214Z" fill="#FAFAFA"/>
<path d="M165.629 127.041C161.961 130.341 157.287 132.307 152.363 132.622C152.363 132.436 155.561 131.948 159.234 130.378C162.908 128.809 165.513 126.89 165.629 127.041Z" fill="#FAFAFA"/>
<path d="M166.78 178.709C166.438 178.939 166.071 179.13 165.687 179.279C164.955 179.627 163.897 180.058 162.548 180.557C159.044 181.817 155.427 182.735 151.747 183.301C148.067 183.869 144.341 184.076 140.621 183.917C139.191 183.859 138.04 183.755 137.249 183.65C136.835 183.623 136.426 183.548 136.028 183.429C136.028 183.325 137.796 183.429 140.679 183.499C148.071 183.568 155.425 182.437 162.455 180.151C165.106 179.279 166.745 178.616 166.78 178.709Z" fill="#FAFAFA"/>
<path d="M167.21 194.463C167.21 194.463 167.048 194.579 166.71 194.753L165.222 195.404C163.943 196.009 162.048 196.799 159.676 197.73C157.305 198.66 154.433 199.555 151.201 200.438C144.174 202.331 136.962 203.45 129.692 203.775C126.344 203.903 123.333 203.891 120.798 203.775C118.263 203.659 116.229 203.473 114.822 203.275L113.206 203.054C113.016 203.041 112.828 203.001 112.648 202.938C112.837 202.908 113.029 202.908 113.218 202.938L114.845 203.043C116.252 203.159 118.333 203.275 120.81 203.345C123.286 203.415 126.344 203.345 129.669 203.229C132.994 203.113 136.645 202.694 140.447 202.066C144.248 201.438 147.829 200.683 151.061 199.869C154.294 199.055 157.154 198.136 159.525 197.288C161.897 196.439 163.827 195.73 165.129 195.195L166.641 194.602C166.825 194.536 167.016 194.489 167.21 194.463Z" fill="#FAFAFA"/>
<path d="M65.2355 441.627L58.9457 470.03L47.4705 491.062C47.2754 491.421 47.156 491.817 47.1197 492.224C47.0834 492.631 47.1311 493.041 47.2597 493.429C47.3882 493.817 47.595 494.174 47.8673 494.479C48.1395 494.784 48.4714 495.03 48.8424 495.201C49.2731 495.399 49.7449 495.49 50.2182 495.468C50.6916 495.446 51.1527 495.31 51.563 495.073C56.8878 492.004 76.4317 480.575 76.7689 478.471C77.1758 476.041 85.3956 448.951 85.3956 448.951L65.2355 441.627Z" fill="#1A80E5"/>
<g opacity="0.6">
<path d="M48.8423 495.201L77.2454 476.599L76.9431 477.762C76.6946 478.799 76.0846 479.714 75.2224 480.343C72.8972 482.005 66.4213 486.47 51.6559 495.096C51.2319 495.345 50.7532 495.484 50.2622 495.502C49.7713 495.521 49.2835 495.417 48.8423 495.201Z" fill="white"/>
</g>
<g opacity="0.6">
<path d="M73.676 466.031C73.2658 466.202 72.9333 466.518 72.7423 466.919C72.5513 467.321 72.5153 467.779 72.6413 468.205C72.7965 468.62 73.1047 468.959 73.5026 469.154C73.9005 469.348 74.3578 469.383 74.7805 469.251C75.2197 469.069 75.5753 468.73 75.7774 468.3C75.9796 467.87 76.0138 467.38 75.8734 466.926C75.6675 466.514 75.3119 466.197 74.8796 466.039C74.4472 465.881 73.9708 465.895 73.5481 466.077" fill="white"/>
</g>
<path d="M58.3295 484.435C57.8605 483.389 57.2022 482.439 56.3879 481.633C55.45 480.98 54.3966 480.51 53.2837 480.25C53.2837 480.168 53.6906 480.04 54.3766 480.11C55.2692 480.225 56.1092 480.597 56.7948 481.18C57.4857 481.74 57.9954 482.493 58.2598 483.342C58.4574 484.005 58.3993 484.435 58.3295 484.435Z" fill="#263238"/>
<path d="M55.3879 487.725C55.2252 487.818 54.5392 486.679 53.1789 485.9C52.3112 485.497 51.4179 485.151 50.5049 484.865C51.0068 484.701 51.5407 484.658 52.0623 484.741C52.5839 484.824 53.0783 485.03 53.5045 485.342C55.0508 486.237 55.5507 487.69 55.3879 487.725Z" fill="#263238"/>
<path d="M63.259 480.505C62.2703 479.408 61.1974 478.39 60.0501 477.459C58.7861 476.688 57.4645 476.016 56.0972 475.448C57.6696 475.416 59.2023 475.943 60.4222 476.936C61.7671 477.745 62.7745 479.013 63.259 480.505Z" fill="#263238"/>
<path d="M65.898 472.03C65.7817 472.181 64.3749 471.146 62.4101 470.576C60.4452 470.007 58.6664 470.1 58.6548 469.902C59.9488 469.567 61.3094 469.588 62.5926 469.962C63.8758 470.337 65.0339 471.051 65.9445 472.03H65.898Z" fill="#263238"/>
<path d="M67.9561 463.74C66.8219 463.039 65.5977 462.495 64.317 462.124C62.9977 461.945 61.6601 461.945 60.3408 462.124C60.3408 462.054 60.7012 461.775 61.4453 461.554C62.4234 461.289 63.4501 461.256 64.4433 461.457C65.4365 461.659 66.3687 462.091 67.1655 462.717C67.7584 463.275 68.0026 463.694 67.9561 463.74Z" fill="#263238"/>
<path d="M64.7471 460.555C64.748 460.186 64.8272 459.821 64.9796 459.485C65.3091 458.525 65.8313 457.643 66.5143 456.892C66.9611 456.298 67.5898 455.865 68.3048 455.66C68.5482 455.62 68.798 455.654 69.0219 455.758C69.2457 455.861 69.4333 456.03 69.5604 456.241C69.7741 456.674 69.8197 457.172 69.6883 457.636C69.3902 458.569 68.7772 459.369 67.9542 459.899C67.1313 460.429 66.1496 460.657 65.1773 460.543C64.2184 460.406 63.3215 459.989 62.5994 459.343C61.8773 458.698 61.3625 457.853 61.1197 456.916C61.0639 456.677 61.0588 456.43 61.1049 456.19C61.151 455.949 61.2471 455.721 61.3871 455.52C61.5477 455.333 61.7639 455.201 62.0043 455.145C62.2447 455.088 62.4968 455.11 62.7241 455.206C63.3813 455.534 63.9421 456.027 64.3518 456.637C64.968 457.443 65.4364 458.352 65.7354 459.322C65.877 459.669 65.9443 460.041 65.933 460.415C65.4643 459.162 64.8098 457.986 63.9914 456.927C63.6103 456.43 63.1161 456.032 62.5497 455.765C62.4252 455.711 62.2865 455.698 62.1545 455.73C62.0224 455.761 61.9041 455.835 61.8173 455.939C61.736 456.076 61.6838 456.228 61.6638 456.386C61.6438 456.544 61.6565 456.705 61.701 456.857C61.9435 457.646 62.4039 458.351 63.0292 458.89C63.6545 459.429 64.4192 459.78 65.2354 459.904C66.0578 459.999 66.8882 459.813 67.5913 459.376C68.2944 458.939 68.8287 458.277 69.107 457.497C69.2196 457.181 69.2196 456.836 69.107 456.52C69.0411 456.401 68.9394 456.306 68.8164 456.247C68.6933 456.189 68.5551 456.17 68.421 456.195C67.8151 456.361 67.2752 456.71 66.8747 457.195C65.9829 458.188 65.2637 459.324 64.7471 460.555Z" fill="#263238"/>
<g opacity="0.3">
<path d="M64.4682 444.708L63.1079 451.219L83.6749 454.637L85.3956 448.951L65.2007 441.627L64.4682 444.708Z" fill="black"/>
</g>
<path d="M157.084 452.137L155.386 474.832C155.386 474.832 177.895 484.133 177.988 488.411L133.808 486.702L134.97 451.219L157.084 452.137Z" fill="#1A80E5"/>
<g opacity="0.6">
<path d="M141.842 472.39C141.413 472.505 141.041 472.773 140.797 473.144C140.553 473.515 140.453 473.962 140.516 474.402C140.614 474.834 140.873 475.213 141.24 475.461C141.607 475.709 142.055 475.809 142.493 475.739C142.949 475.618 143.344 475.332 143.601 474.937C143.859 474.542 143.961 474.065 143.888 473.599C143.741 473.158 143.429 472.79 143.017 472.574C142.606 472.357 142.126 472.308 141.679 472.437" fill="white"/>
</g>
<g opacity="0.6">
<path d="M133.831 486.702L134.087 483.121L176.349 486.063C176.349 486.063 178.29 486.993 178.011 488.388L133.831 486.702Z" fill="white"/>
</g>
<path d="M156.13 474.634C156.13 474.855 155.037 474.913 153.956 475.564C152.875 476.215 152.27 477.099 152.073 477.006C151.875 476.913 152.247 475.68 153.572 474.913C154.898 474.146 156.188 474.436 156.13 474.634Z" fill="#263238"/>
<path d="M160.688 476.762C160.688 476.983 159.781 477.308 159.014 478.192C158.246 479.075 158.002 480.029 157.781 480.017C157.56 480.005 157.479 478.773 158.455 477.692C159.432 476.61 160.688 476.529 160.688 476.762Z" fill="#263238"/>
<path d="M163.106 482.377C162.909 482.377 162.653 481.319 163.246 480.168C163.839 479.017 164.873 478.575 164.955 478.761C165.036 478.947 164.397 479.552 163.92 480.505C163.443 481.459 163.315 482.366 163.106 482.377Z" fill="#263238"/>
<path d="M155.921 469.425C155.828 469.611 154.851 469.274 153.596 469.309C152.34 469.344 151.41 469.693 151.271 469.507C151.131 469.321 152.108 468.588 153.596 468.565C155.084 468.542 156.061 469.263 155.921 469.425Z" fill="#263238"/>
<g opacity="0.3">
<path d="M156.77 456.636L156.467 460.682L134.784 459.636L134.935 454.962L156.77 456.636Z" fill="black"/>
</g>
<path d="M156.212 464.833C155.481 465.01 154.716 464.977 154.003 464.74C153.197 464.573 152.415 464.303 151.677 463.938C151.247 463.726 150.831 463.485 150.433 463.217C150.191 463.068 149.971 462.884 149.782 462.671C149.654 462.504 149.584 462.299 149.584 462.089C149.584 461.879 149.654 461.675 149.782 461.508C149.895 461.361 150.042 461.243 150.21 461.164C150.378 461.085 150.562 461.048 150.747 461.054C151.027 461.066 151.305 461.113 151.573 461.194C152.038 461.33 152.489 461.509 152.921 461.729C153.656 462.088 154.327 462.563 154.909 463.136C155.898 464.124 156.212 464.949 156.142 464.984C156.072 465.019 155.572 464.356 154.561 463.531C153.967 463.067 153.319 462.676 152.631 462.368C152.22 462.198 151.801 462.051 151.375 461.926C150.91 461.787 150.515 461.775 150.387 461.926C150.259 462.078 150.387 462.043 150.387 462.182C150.526 462.336 150.687 462.469 150.863 462.577C151.236 462.837 151.625 463.074 152.026 463.287C152.697 463.656 153.401 463.96 154.13 464.194C154.838 464.357 155.534 464.571 156.212 464.833Z" fill="#263238"/>
<path d="M155.921 465.135C155.535 464.484 155.36 463.728 155.421 462.973C155.426 462.155 155.559 461.343 155.816 460.566C155.983 460.111 156.189 459.672 156.433 459.252C156.563 458.965 156.765 458.715 157.02 458.528C157.274 458.341 157.572 458.222 157.886 458.183C158.084 458.196 158.275 458.265 158.436 458.382C158.596 458.499 158.72 458.66 158.793 458.845C158.894 459.106 158.956 459.38 158.979 459.659C159.055 460.152 159.055 460.654 158.979 461.147C158.823 461.969 158.468 462.74 157.944 463.391C157.037 464.554 156.13 464.728 156.107 464.659C156.084 464.589 156.805 464.159 157.514 463.077C157.921 462.461 158.187 461.762 158.293 461.031C158.352 460.607 158.352 460.177 158.293 459.752C158.235 459.287 158.072 458.892 157.897 458.938C157.723 458.985 157.293 459.264 157.095 459.636C156.868 460.008 156.67 460.397 156.502 460.799C156.233 461.501 156.061 462.236 155.991 462.984C155.84 464.287 156.037 465.135 155.921 465.135Z" fill="#263238"/>
<path d="M111.416 207.379C111.416 207.379 104.44 207.693 99.7892 231.551C95.1386 255.408 59.6899 448.719 59.6899 448.719L85.3958 448.951L133.831 265.162L130.611 454.672L156.723 456.671C156.723 456.671 176.314 247.06 176.488 234.864C176.721 219.657 167.989 204.275 167.989 204.275L111.416 207.379Z" fill="#263238"/>
<path d="M146.748 205.345C146.911 205.345 144.237 219.006 140.784 235.783C137.331 252.559 134.401 266.139 134.238 266.104C134.075 266.069 136.738 252.443 140.191 235.666C143.644 218.889 146.62 205.31 146.748 205.345Z" fill="#455A64"/>
<path d="M150.747 208.751C150.747 208.682 151.445 208.472 152.247 209.181C152.475 209.388 152.655 209.642 152.776 209.925C152.896 210.208 152.954 210.513 152.945 210.821C152.916 211.21 152.777 211.582 152.544 211.895C152.312 212.208 151.995 212.448 151.631 212.588C151.276 212.749 150.883 212.807 150.496 212.756C150.11 212.705 149.746 212.546 149.445 212.297C149.22 212.087 149.043 211.83 148.925 211.546C148.806 211.261 148.75 210.954 148.759 210.646C148.759 209.577 149.48 209.205 149.492 209.274C149.296 209.701 149.193 210.165 149.189 210.635C149.205 210.871 149.268 211.101 149.373 211.313C149.479 211.525 149.626 211.713 149.806 211.867C150.035 212.025 150.3 212.123 150.578 212.152C150.855 212.181 151.135 212.139 151.392 212.032C151.649 211.924 151.874 211.754 152.048 211.536C152.222 211.318 152.339 211.06 152.387 210.786C152.404 210.55 152.374 210.314 152.298 210.09C152.222 209.866 152.102 209.66 151.945 209.484C151.375 208.821 150.736 208.844 150.747 208.751Z" fill="#455A64"/>
<path d="M149.643 218.192C149.643 218.122 150.364 218.192 150.805 219.157C150.918 219.432 150.969 219.729 150.955 220.026C150.941 220.323 150.862 220.614 150.724 220.878C150.524 221.191 150.243 221.444 149.91 221.609C149.577 221.775 149.205 221.846 148.835 221.817C148.464 221.787 148.109 221.656 147.806 221.44C147.504 221.223 147.267 220.928 147.12 220.587C147.027 220.307 146.997 220.01 147.031 219.716C147.065 219.423 147.163 219.141 147.318 218.889C147.864 218.017 148.608 218.041 148.585 218.11C148.562 218.18 148.027 218.343 147.69 219.087C147.519 219.504 147.519 219.972 147.69 220.389C147.811 220.62 147.989 220.816 148.206 220.96C148.424 221.103 148.674 221.19 148.934 221.211C149.194 221.231 149.455 221.186 149.693 221.079C149.93 220.972 150.137 220.807 150.294 220.599C150.513 220.201 150.567 219.733 150.445 219.296C150.108 218.506 149.585 218.273 149.643 218.192Z" fill="#455A64"/>
<path d="M125.006 208.984C124.959 209.383 124.857 209.774 124.704 210.146C124.341 211.211 123.886 212.242 123.344 213.227C121.57 216.516 119.008 219.314 115.887 221.369C112.767 223.425 109.185 224.674 105.463 225.005C104.345 225.102 103.22 225.102 102.103 225.005C101.709 224.992 101.318 224.93 100.94 224.819C100.94 224.703 102.696 224.9 105.474 224.551C109.096 224.112 112.566 222.839 115.612 220.831C118.658 218.824 121.197 216.138 123.03 212.983C124.39 210.635 124.902 208.949 125.006 208.984Z" fill="#455A64"/>
<path d="M175.023 225.947C175.023 225.947 174.721 225.807 174.244 225.482C173.578 225.003 172.956 224.466 172.384 223.877C170.472 221.942 168.98 219.632 168.002 217.094C167.023 214.555 166.58 211.841 166.699 209.123C166.725 208.305 166.83 207.491 167.012 206.693C167.14 206.124 167.222 205.821 167.268 205.833C167.315 205.845 167.129 207.1 167.129 209.135C167.131 214.476 169.115 219.626 172.698 223.587C174.058 225.086 175.081 225.854 175.023 225.947Z" fill="#455A64"/>
<path d="M265.208 226.621C265.592 225.691 265.487 226.063 259.325 221.97C259.325 221.97 268.161 227.784 267.243 225.017C266.448 223.968 265.476 223.067 264.371 222.354C266.697 223.726 268.045 223.877 268.452 223.319C269.15 222.354 264.092 218.669 261.686 217.006C263.886 218.58 266.193 219.998 268.592 221.25C270.022 221.691 269.336 220.017 268.371 218.796C267.406 217.576 259.918 210.367 257.907 208.216C257.716 208.053 257.562 207.85 257.457 207.621C257.351 207.392 257.297 207.143 257.297 206.891C257.297 206.639 257.351 206.39 257.457 206.161C257.562 205.933 257.716 205.729 257.907 205.566C261.511 203.24 263.092 199.532 263.046 198.311C263.006 198.036 262.88 197.781 262.686 197.582C262.492 197.383 262.24 197.251 261.966 197.205C261.692 197.158 261.41 197.2 261.162 197.323C260.913 197.447 260.71 197.646 260.581 197.892C259.671 199.023 258.611 200.024 257.43 200.869C256.515 201.583 255.485 202.137 254.384 202.508C253.105 202.926 246.816 202.578 245.467 201.892L241.177 216.436C241.177 216.436 256.744 223.714 259.698 225.133C263.325 226.854 264.941 227.33 265.208 226.621Z" fill="#FFBE9D"/>
<path d="M256.524 219.82C256.396 219.994 258.419 221.471 261.035 223.133C263.651 224.796 265.848 225.993 265.953 225.819C266.057 225.644 264.034 224.156 261.43 222.505C258.826 220.854 256.64 219.599 256.524 219.82Z" fill="#EB996E"/>
<path d="M257.989 216.971C257.872 217.146 259.942 218.843 262.639 220.773C265.336 222.703 267.569 224.133 267.685 223.97C267.801 223.807 265.743 222.098 263.034 220.168C260.325 218.238 258.116 216.808 257.989 216.971Z" fill="#EB996E"/>
<path d="M259.535 214.088C259.419 214.251 261.348 215.902 263.848 217.762C266.348 219.622 268.499 220.994 268.592 220.831C268.685 220.668 266.79 219.017 264.29 217.157C261.79 215.297 259.663 213.925 259.535 214.088Z" fill="#EB996E"/>
<path d="M101.196 161.409L112.613 162.037C113.422 165.224 114.503 168.336 115.845 171.338C125.041 155.386 132.122 134.006 133.936 125.414C133.68 124.569 133.366 123.615 132.994 122.554C132.715 120.948 132.763 119.304 133.133 117.717C133.447 115.81 133.982 113.229 134.133 112.043C134.633 108.416 135.215 107.835 136.459 108.253C138.179 108.811 135.749 118.45 137.156 118.659C137.923 118.763 138.842 115.462 139.121 112.753C139.4 110.044 140.609 101.719 141.504 101.126C142.818 100.312 143.958 101.603 143.632 104.3C143.306 106.998 142.876 115.171 144.306 115.276C145.736 115.38 146.899 101.568 146.899 101.568C146.899 101.568 146.678 98.5685 148.329 98.6382C151.317 98.7661 148.992 113.334 148.736 114.717C148.55 115.671 150.108 115.88 150.247 114.81C150.387 113.741 151.108 100.987 154.142 101.091C156.467 101.173 152.34 113.09 153.654 115.857C154.968 118.624 155.875 106.474 158.107 106.637C158.932 106.707 159.548 106.87 158.025 113.741C156.539 119.205 154.758 124.584 152.689 129.855C149.201 148.922 133.633 209.914 109.311 198.753C95.7082 192.509 89.3486 161.548 89.3486 161.548L101.196 161.409Z" fill="#FFBE9D"/>
<path d="M152.712 129.96C152.732 129.816 152.771 129.675 152.829 129.541C152.933 129.239 153.061 128.843 153.235 128.378C153.619 127.274 154.142 125.739 154.828 123.728C155.514 121.717 156.34 119.275 157.154 116.392C157.572 114.962 157.921 113.404 158.235 111.741C158.398 110.904 158.549 110.044 158.653 109.16C158.682 108.723 158.682 108.284 158.653 107.846C158.653 107.393 158.549 107.021 158.188 107.009C157.828 106.998 157.572 107.218 157.316 107.602C157.085 108.013 156.894 108.445 156.747 108.893C156.421 109.811 156.165 110.788 155.91 111.776C155.654 112.764 155.421 113.799 155.119 114.845C154.987 115.419 154.751 115.962 154.421 116.45C154.339 116.545 154.229 116.614 154.107 116.647C154.031 116.664 153.951 116.664 153.875 116.646C153.798 116.627 153.727 116.592 153.666 116.543C153.532 116.42 153.422 116.275 153.34 116.113C153.217 115.827 153.135 115.526 153.096 115.217C153.043 112.872 153.277 110.53 153.794 108.242C153.991 107.079 154.2 105.916 154.352 104.754C154.421 104.161 154.491 103.591 154.503 102.963C154.514 102.335 154.421 101.673 154.177 101.568C153.933 101.463 153.34 101.789 153.015 102.277C152.693 102.793 152.439 103.348 152.259 103.928C151.862 105.143 151.563 106.387 151.364 107.649C151.143 108.928 150.968 110.23 150.817 111.555C150.759 112.218 150.689 112.88 150.631 113.555L150.538 114.566C150.551 114.782 150.515 114.998 150.435 115.199C150.355 115.4 150.231 115.581 150.073 115.729C149.874 115.874 149.634 115.953 149.387 115.953C149.141 115.953 148.9 115.874 148.701 115.729C148.588 115.654 148.493 115.557 148.421 115.443C148.348 115.328 148.301 115.2 148.283 115.066C148.265 114.943 148.265 114.818 148.283 114.694V114.45L148.597 112.415C148.794 111.044 148.957 109.672 149.085 108.276C149.213 106.881 149.317 105.475 149.341 104.068C149.409 102.675 149.268 101.28 148.922 99.9287C148.842 99.5859 148.634 99.2866 148.341 99.0917C148.201 99.0466 148.05 99.0471 147.91 99.093C147.77 99.139 147.648 99.228 147.562 99.3474C147.185 100.036 147.031 100.824 147.12 101.603C146.864 104.335 146.574 107.021 146.178 109.66C145.981 110.974 145.76 112.288 145.434 113.578C145.341 113.892 145.248 114.218 145.132 114.543C145.021 114.938 144.789 115.287 144.469 115.543C144.328 115.612 144.166 115.632 144.012 115.598C143.858 115.564 143.72 115.479 143.62 115.357C143.479 115.208 143.371 115.029 143.307 114.834C143.181 114.511 143.091 114.176 143.039 113.834C142.767 111.304 142.743 108.753 142.969 106.219C143.141 105.037 143.207 103.843 143.167 102.649C143.129 102.14 142.896 101.665 142.516 101.324C142.427 101.268 142.327 101.232 142.223 101.216C142.119 101.2 142.013 101.205 141.911 101.231C141.803 101.268 141.698 101.314 141.597 101.37C141.493 101.463 141.504 101.37 141.435 101.568C141.014 102.614 140.706 103.701 140.516 104.812C140.284 105.974 140.086 107.032 139.912 108.125C139.737 109.218 139.575 110.288 139.435 111.357C139.295 112.427 139.226 113.473 139.016 114.52C138.836 115.542 138.563 116.546 138.203 117.519C138.107 117.767 137.994 118.008 137.865 118.24C137.703 118.461 137.61 118.74 137.168 118.88C137.055 118.9 136.938 118.887 136.833 118.842C136.727 118.796 136.637 118.72 136.575 118.624C136.494 118.49 136.431 118.345 136.389 118.194C136.337 117.941 136.306 117.684 136.296 117.426C136.296 115.438 136.563 113.625 136.668 111.869C136.744 111.03 136.744 110.185 136.668 109.346C136.668 108.974 136.494 108.532 136.284 108.451C136.138 108.379 135.977 108.342 135.813 108.342C135.65 108.342 135.489 108.379 135.343 108.451C134.855 108.975 134.552 109.645 134.482 110.358C134.308 111.067 134.238 111.788 134.11 112.474C133.622 115.217 133.11 117.589 132.866 119.519C132.751 120.368 132.751 121.228 132.866 122.077C133.029 122.774 133.273 123.402 133.401 123.891C133.529 124.379 133.657 124.728 133.738 125.053C133.781 125.178 133.813 125.306 133.831 125.437C133.761 125.324 133.707 125.203 133.668 125.077L133.273 123.914C133.11 123.414 132.866 122.856 132.668 122.089C132.544 121.217 132.544 120.332 132.668 119.461C132.889 117.496 133.354 115.148 133.831 112.392C133.959 111.706 134.029 110.985 134.18 110.241C134.263 109.848 134.368 109.46 134.494 109.079C134.61 108.656 134.864 108.284 135.215 108.021C135.426 107.909 135.661 107.85 135.901 107.85C136.14 107.85 136.375 107.909 136.587 108.021C136.814 108.164 137.001 108.363 137.129 108.599C137.257 108.836 137.323 109.101 137.319 109.369C137.4 110.243 137.4 111.123 137.319 111.997C137.238 113.764 136.959 115.613 137.005 117.496C137.014 117.719 137.041 117.941 137.086 118.159C137.086 118.38 137.249 118.473 137.226 118.426C137.203 118.38 137.447 118.24 137.54 118.054C137.655 117.848 137.756 117.634 137.842 117.415C138.187 116.472 138.44 115.499 138.598 114.508C138.796 113.497 138.865 112.45 139.005 111.369C139.144 110.288 139.284 109.218 139.458 108.114C139.633 107.009 139.83 105.905 140.051 104.777C140.24 103.599 140.568 102.448 141.028 101.347C141.121 101.163 141.261 101.006 141.435 100.894C141.589 100.809 141.753 100.743 141.923 100.696C142.118 100.64 142.323 100.627 142.523 100.657C142.724 100.687 142.916 100.76 143.086 100.87C143.355 101.085 143.578 101.352 143.74 101.656C143.902 101.96 144 102.294 144.027 102.638C144.115 103.27 144.115 103.912 144.027 104.544C143.969 105.137 143.911 105.707 143.876 106.358C143.65 108.834 143.673 111.327 143.946 113.799C143.996 114.093 144.074 114.381 144.179 114.659C144.213 114.772 144.273 114.875 144.353 114.962C144.353 114.962 144.353 114.962 144.411 114.962C144.411 115.229 144.411 114.962 144.411 115.066C144.411 115.171 144.411 115.066 144.411 114.973C144.556 114.779 144.67 114.563 144.748 114.334C144.857 114.047 144.95 113.745 145.027 113.427C145.341 112.195 145.55 110.892 145.748 109.59C146.143 106.974 146.434 104.289 146.678 101.568V101.626C146.575 100.668 146.783 99.7017 147.271 98.8708C147.458 98.6333 147.713 98.4597 148.003 98.3743C148.293 98.2889 148.602 98.2958 148.887 98.3941C149.131 98.5294 149.345 98.7123 149.517 98.932C149.689 99.1517 149.815 99.4037 149.887 99.673C150.259 101.103 150.412 102.581 150.34 104.056C150.34 105.498 150.213 106.916 150.085 108.323C149.957 109.73 149.782 111.113 149.585 112.485C149.48 113.183 149.375 113.857 149.271 114.543C149.178 114.973 149.201 114.985 149.271 115.113C149.352 115.167 149.447 115.196 149.544 115.196C149.641 115.196 149.737 115.167 149.817 115.113C149.957 115.008 149.98 114.81 150.015 114.427L150.096 113.415L150.306 111.404C150.445 110.079 150.631 108.753 150.852 107.463C151.067 106.166 151.378 104.888 151.782 103.638C151.993 103.006 152.278 102.401 152.631 101.835C152.823 101.531 153.076 101.269 153.375 101.068C153.541 100.948 153.733 100.87 153.935 100.839C154.137 100.809 154.344 100.828 154.538 100.894C154.716 101.004 154.866 101.153 154.977 101.331C155.088 101.508 155.156 101.709 155.177 101.917C155.225 102.244 155.244 102.575 155.235 102.905C155.235 103.545 155.154 104.161 155.084 104.777C154.921 105.94 154.7 107.172 154.491 108.346C153.992 110.555 153.75 112.814 153.77 115.078C153.803 115.321 153.865 115.559 153.956 115.787C153.998 115.87 154.049 115.948 154.107 116.02C154.107 116.02 154.107 116.02 154.107 115.938C154.368 115.518 154.561 115.059 154.677 114.578C154.979 113.566 155.224 112.543 155.491 111.543C155.731 110.549 156.022 109.567 156.363 108.602C156.524 108.124 156.734 107.664 156.991 107.23C157.129 106.993 157.311 106.785 157.526 106.614C157.642 106.513 157.782 106.441 157.932 106.405C158.083 106.381 158.236 106.381 158.386 106.405C158.545 106.42 158.696 106.478 158.825 106.572C158.954 106.666 159.055 106.793 159.118 106.939C159.215 107.184 159.267 107.444 159.27 107.707C159.279 108.177 159.251 108.647 159.188 109.114C159.083 110.02 158.909 110.881 158.746 111.729C158.409 113.392 158.037 114.973 157.584 116.38C156.712 119.263 155.84 121.705 155.131 123.693C154.421 125.681 153.817 127.181 153.41 128.251C153.212 128.739 153.049 129.122 152.933 129.413C152.881 129.603 152.807 129.787 152.712 129.96Z" fill="#EB996E"/>
<path d="M89.2441 162.723C91.4531 170.524 95.7781 182.557 100.417 195.276C100.563 195.686 100.828 196.043 101.177 196.303C101.527 196.562 101.945 196.712 102.38 196.733C102.814 196.754 103.245 196.646 103.618 196.421C103.991 196.197 104.289 195.868 104.475 195.474L115.845 171.419C115.845 171.419 113.101 151.654 113.334 152.364C113.566 153.073 89.872 154.921 89.872 154.921L89.2441 162.723Z" fill="#1A80E5"/>
<path d="M114.868 158.851C114.868 158.944 113.45 159.363 111.206 160.223C108.273 161.336 105.448 162.714 102.765 164.339C100.086 165.971 97.5568 167.839 95.2081 169.919C93.406 171.512 92.3713 172.605 92.3015 172.535C92.2318 172.465 92.4992 172.21 92.941 171.687C93.5638 170.959 94.2235 170.265 94.9175 169.605C97.2092 167.399 99.7355 165.449 102.451 163.792C105.168 162.155 108.052 160.815 111.055 159.793C111.962 159.48 112.886 159.216 113.822 159.002C114.16 158.896 114.514 158.845 114.868 158.851Z" fill="#FAFAFA"/>
<path d="M119.379 164.85C118.641 164.105 118 163.269 117.473 162.362C116.115 160.245 114.948 158.012 113.985 155.689C113.021 153.358 112.27 150.946 111.741 148.48C111.47 147.472 111.333 146.432 111.334 145.388C111.681 146.363 111.957 147.361 112.159 148.376C112.782 150.783 113.559 153.148 114.485 155.456C115.452 157.752 116.562 159.985 117.81 162.141C118.39 163.01 118.915 163.915 119.379 164.85Z" fill="#263238"/>
<path d="M126.96 58.3298C124.987 61.5807 123.765 65.2305 123.38 69.0136C122.996 72.7967 123.46 76.6178 124.739 80.1989C125.902 83.3961 127.762 86.5469 127.425 89.9418C127.088 93.3367 124.437 96.6967 125.367 100.045C125.925 102.033 127.623 103.533 128.285 105.463C129.041 107.788 128.285 110.241 127.878 112.625C126.948 118.717 128.901 124.844 129.378 130.983C129.855 137.121 128.215 144.318 122.728 146.992C121.065 147.806 118.891 148.039 117.508 146.795C115.74 145.225 116.229 142.388 116.717 140.063C121.53 116.81 106.66 94.1156 110.055 70.5839C110.602 66.817 112.706 60.4225 115.415 57.7949C118.124 55.1674 125.646 55.4697 128.204 58.26" fill="#263238"/>
<path d="M104.056 125.786C104.056 125.786 104.765 124.949 105.811 123.298C107.28 120.966 108.308 118.385 108.846 115.682C109.196 113.821 109.318 111.923 109.206 110.032C109.003 107.833 108.921 105.625 108.962 103.417C109.031 102.208 109.254 101.012 109.625 99.859C110.05 98.6712 110.587 97.5266 111.229 96.4409C112.531 94.2435 114.171 92.1973 115.682 90.0115C117.234 87.9458 118.314 85.5644 118.844 83.0357C119.102 80.6539 118.965 78.2458 118.437 75.9088C117.998 73.7367 117.826 71.5189 117.926 69.305C118.064 67.3712 118.455 65.4638 119.089 63.6314C119.977 60.9724 121.375 58.5121 123.204 56.3881C123.69 55.8107 124.219 55.2705 124.785 54.7721C124.965 54.5806 125.168 54.4127 125.39 54.2722C125.39 54.2722 124.611 55.0279 123.379 56.5974C120.443 60.2409 118.727 64.7146 118.472 69.3864C118.394 71.5641 118.586 73.7431 119.042 75.8739C119.597 78.2737 119.746 80.7494 119.484 83.1985C118.933 85.7977 117.822 88.2457 116.228 90.3719C114.705 92.5926 113.066 94.6272 111.787 96.7664C111.158 97.8119 110.636 98.9181 110.229 100.068C109.861 101.174 109.639 102.323 109.567 103.486C109.515 105.67 109.577 107.855 109.753 110.032C109.845 111.961 109.696 113.895 109.311 115.787C108.728 118.527 107.623 121.128 106.055 123.449C105.631 124.076 105.165 124.674 104.66 125.239C104.479 125.443 104.277 125.626 104.056 125.786Z" fill="#455A64"/>
<path d="M93.0342 127.518C93.1278 127.247 93.2486 126.986 93.3946 126.739C93.6853 126.193 94.0573 125.472 94.5572 124.565C95.5338 122.67 96.9871 119.914 98.4172 116.427C100.166 112.353 101.137 107.987 101.277 103.556C101.278 102.279 101.181 101.005 100.987 99.7427C100.789 98.4406 100.487 97.1268 100.289 95.7549C100.047 94.3358 100.079 92.8836 100.382 91.4764C100.775 90.0316 101.584 88.734 102.707 87.7444C104.893 85.7563 107.532 84.4541 108.904 82.1172C110.093 79.8 110.793 77.2635 110.962 74.6647C111.208 72.2823 111.747 69.9394 112.566 67.6889C114.409 62.8576 117.693 58.7095 121.972 55.8068C122.654 55.3476 123.365 54.9321 124.1 54.5628C124.348 54.4142 124.613 54.297 124.89 54.214C124.89 54.214 123.844 54.7721 122.112 56.0044C119.67 57.7468 117.556 59.9078 115.868 62.3873C114.698 64.087 113.745 65.9267 113.031 67.8633C112.248 70.1191 111.741 72.4614 111.52 74.8391C111.171 77.3155 110.892 80.0826 109.404 82.5358C107.916 84.9889 105.195 86.3841 103.114 88.3489C102.054 89.2693 101.289 90.4828 100.917 91.8368C100.634 93.1682 100.607 94.5411 100.835 95.8828C101.021 97.2198 101.312 98.5452 101.51 99.859C101.711 101.151 101.804 102.458 101.789 103.765C101.631 108.278 100.609 112.718 98.7776 116.845C97.5883 119.634 96.2373 122.352 94.7316 124.984L93.4992 126.809C93.3697 127.061 93.2138 127.299 93.0342 127.518Z" fill="#455A64"/>
<path d="M477.703 456.044C477.757 455.874 477.827 455.711 477.912 455.555C478.075 455.206 478.296 454.741 478.563 454.148C479.372 452.332 480.022 450.45 480.505 448.521C481.784 443.522 482.237 435.883 480.342 426.815C479.313 421.869 477.965 416.996 476.308 412.224C474.61 407.05 472.622 401.563 471.006 395.621C469.182 389.425 468.3 382.99 468.39 376.531C468.634 369.776 470.634 363.044 472.832 356.324C475.029 349.604 477.296 343.059 477.97 336.432C478.72 330.077 477.442 323.648 474.32 318.062C471.413 312.702 467.751 308.11 465.019 303.366C462.461 298.959 460.576 294.194 459.426 289.229C457.777 282.041 457.654 274.587 459.066 267.348C459.58 264.7 460.359 262.109 461.391 259.617C461.36 259.791 461.313 259.962 461.252 260.128L460.787 261.605C460.391 262.907 459.868 264.86 459.368 267.418C458.069 274.624 458.263 282.02 459.938 289.147C461.104 294.052 462.997 298.754 465.553 303.099C468.286 307.75 471.96 312.4 474.936 317.783C478.135 323.482 479.449 330.046 478.691 336.536C478.005 343.256 475.727 349.872 473.529 356.58C471.332 363.289 469.355 369.951 469.111 376.589C469.007 382.983 469.869 389.357 471.669 395.494C473.262 401.4 475.215 406.887 476.901 412.084C478.543 416.882 479.863 421.784 480.854 426.757C482.702 435.895 482.179 443.615 480.854 448.626C480.335 450.558 479.638 452.438 478.773 454.241L478.052 455.625C477.952 455.777 477.835 455.918 477.703 456.044Z" fill="#263238"/>
<path d="M468.739 308.052C468.739 308.052 463.181 290.252 473.157 279.835C473.234 279.751 473.333 279.69 473.443 279.659C473.553 279.629 473.669 279.629 473.779 279.66C473.889 279.692 473.987 279.753 474.064 279.837C474.141 279.921 474.193 280.025 474.215 280.137C474.75 283.079 475.412 292.031 468.739 308.052Z" fill="#1A80E5"/>
<path d="M472.076 285.764C472.058 286.867 471.934 287.965 471.704 289.043C471.332 291.31 470.902 293.961 470.437 296.891C469.972 299.82 469.541 302.483 469.181 304.738C469.079 305.838 468.885 306.927 468.6 307.994C468.491 306.894 468.514 305.786 468.669 304.692C468.855 302.657 469.216 299.867 469.716 296.798C470.216 293.728 470.762 290.984 471.192 288.973C471.362 287.873 471.658 286.796 472.076 285.764Z" fill="#263238"/>
<path d="M475.273 350.035C475.273 350.035 478.679 331.7 492.375 327.166C492.483 327.128 492.6 327.121 492.711 327.146C492.823 327.17 492.925 327.226 493.007 327.305C493.089 327.385 493.148 327.486 493.176 327.597C493.204 327.707 493.2 327.824 493.166 327.933C492.259 330.758 488.666 338.978 475.273 350.035Z" fill="#1A80E5"/>
<path d="M488.643 331.874C488.112 332.843 487.489 333.757 486.783 334.606L481.982 340.943L477.215 347.302C476.615 348.225 475.934 349.093 475.18 349.895C475.605 348.872 476.151 347.904 476.808 347.012C477.97 345.303 479.552 343.001 481.458 340.524C483.365 338.048 485.097 335.874 486.411 334.293C487.064 333.407 487.813 332.596 488.643 331.874Z" fill="#263238"/>
<path d="M471.576 395.994C471.576 395.994 469.506 377.461 481.295 369.148C481.386 369.077 481.496 369.034 481.61 369.023C481.725 369.012 481.841 369.034 481.943 369.086C482.046 369.139 482.132 369.22 482.19 369.319C482.248 369.419 482.277 369.533 482.272 369.648C482.237 372.636 481.179 381.542 471.576 395.994Z" fill="#1A80E5"/>
<path d="M479.133 374.752C478.917 375.835 478.585 376.891 478.145 377.903L475.401 385.367C474.378 388.157 473.459 390.68 472.68 392.831C472.382 393.89 471.993 394.92 471.518 395.912C471.625 394.809 471.867 393.724 472.238 392.68C472.808 390.727 473.692 388.029 474.773 385.123C475.854 382.216 476.912 379.6 477.714 377.729C478.085 376.691 478.56 375.693 479.133 374.752Z" fill="#263238"/>
<path d="M481.889 442.243C481.889 442.243 480.493 423.641 492.562 415.758C492.656 415.693 492.767 415.656 492.881 415.65C492.996 415.645 493.109 415.671 493.21 415.727C493.31 415.782 493.393 415.865 493.449 415.965C493.505 416.065 493.532 416.179 493.527 416.293C493.387 419.281 492.015 428.152 481.889 442.243Z" fill="#1A80E5"/>
<path d="M490.167 421.292C489.906 422.366 489.536 423.41 489.062 424.408C488.202 426.524 487.179 429.059 486.051 431.768C484.923 434.477 483.935 437 483.075 439.127C482.73 440.177 482.29 441.192 481.761 442.162C481.915 441.062 482.2 439.985 482.609 438.953C483.249 437.023 484.226 434.372 485.411 431.5C486.597 428.629 487.737 426.048 488.609 424.211C489.023 423.185 489.545 422.207 490.167 421.292Z" fill="#263238"/>
<path d="M460.74 292.415C460.74 292.415 444.254 283.764 443.894 269.359C443.893 269.247 443.922 269.135 443.979 269.038C444.036 268.94 444.118 268.86 444.217 268.805C444.316 268.75 444.428 268.723 444.54 268.727C444.653 268.73 444.763 268.764 444.859 268.825C447.312 270.522 454.125 276.382 460.74 292.415Z" fill="#1A80E5"/>
<path d="M447.323 274.312C448.097 275.103 448.787 275.972 449.381 276.905C450.73 278.754 452.299 280.939 454.032 283.346L458.682 289.764C459.391 290.608 460.021 291.515 460.566 292.473C459.715 291.765 458.954 290.957 458.298 290.066C456.985 288.508 455.264 286.276 453.45 283.753C451.637 281.23 450.044 278.893 448.951 277.184C448.31 276.286 447.765 275.323 447.323 274.312Z" fill="#263238"/>
<path d="M478.494 330.63C478.494 330.63 461.473 323.015 460.275 308.633C460.266 308.52 460.287 308.407 460.338 308.305C460.389 308.204 460.466 308.118 460.563 308.058C460.659 307.998 460.77 307.966 460.883 307.965C460.996 307.964 461.108 307.994 461.205 308.052C463.751 309.598 470.902 315.016 478.494 330.63Z" fill="#1A80E5"/>
<path d="M464.019 313.377C464.839 314.115 465.579 314.937 466.228 315.83L471.273 321.98L476.331 328.107C477.088 328.909 477.773 329.777 478.377 330.7C477.485 330.042 476.673 329.281 475.959 328.433C474.564 326.945 472.703 324.829 470.739 322.422C468.774 320.015 467.053 317.772 465.844 316.132C465.135 315.284 464.523 314.36 464.019 313.377Z" fill="#263238"/>
<path d="M468.669 373.287C468.669 373.287 457.043 358.754 462.472 345.384C462.515 345.279 462.586 345.188 462.678 345.121C462.769 345.054 462.877 345.013 462.99 345.004C463.103 344.994 463.217 345.016 463.318 345.066C463.42 345.117 463.505 345.195 463.565 345.291C465.181 347.814 469.053 355.906 468.669 373.287Z" fill="#1A80E5"/>
<path d="M463.647 351.29C464.045 352.323 464.333 353.395 464.507 354.487C464.996 356.72 465.565 359.347 466.193 362.254C466.821 365.16 467.414 367.776 467.902 370.009C468.213 371.068 468.427 372.154 468.542 373.252C468.031 372.264 467.641 371.218 467.379 370.137C466.809 368.172 466.112 365.486 465.461 362.393C464.81 359.301 464.298 356.58 463.972 354.58C463.744 353.499 463.635 352.396 463.647 351.29Z" fill="#263238"/>
<path d="M480.296 423.408C480.296 423.408 463.403 415.514 462.449 401.121C462.438 401.006 462.459 400.89 462.51 400.787C462.562 400.684 462.641 400.597 462.739 400.536C462.837 400.476 462.95 400.444 463.065 400.445C463.181 400.445 463.293 400.478 463.391 400.539C465.891 402.132 472.948 407.678 480.296 423.408Z" fill="#1A80E5"/>
<path d="M466.077 405.911C466.876 406.673 467.6 407.51 468.239 408.41L473.18 414.631L478.133 420.851C478.878 421.664 479.547 422.544 480.133 423.478C479.267 422.799 478.487 422.019 477.808 421.153C476.424 419.641 474.61 417.491 472.68 415.049C470.75 412.608 469.076 410.34 467.89 408.678C467.18 407.829 466.571 406.901 466.077 405.911Z" fill="#263238"/>
<path d="M513.907 350.116C513.907 350.116 513.907 350.256 513.907 350.523C513.907 350.79 513.907 351.232 513.907 351.686C513.907 352.848 513.791 354.325 513.71 356.208C513.5 360.184 513.186 365.73 512.826 372.357C511.663 379.1 508.176 386.576 503.525 393.843C500.142 399.191 496.549 404.051 493.526 408.573C490.767 412.542 488.289 416.699 486.109 421.013C484.665 423.929 483.498 426.973 482.621 430.105C482.33 431.21 482.098 432.082 481.97 432.675C481.915 432.983 481.833 433.287 481.726 433.581C481.73 433.268 481.769 432.956 481.842 432.651C481.923 432.047 482.098 431.163 482.365 430.035C483.147 426.848 484.258 423.751 485.679 420.793C487.839 416.444 490.315 412.259 493.085 408.271C496.131 403.713 499.653 398.842 503.025 393.529C507.617 386.297 511.036 378.938 512.326 372.299C512.791 365.684 513.175 360.15 513.489 356.173C513.64 354.29 513.768 352.79 513.861 351.662C513.861 351.197 513.942 350.802 513.977 350.5C513.938 350.375 513.914 350.246 513.907 350.116Z" fill="#263238"/>
<path d="M503.851 392.506C503.851 392.506 511.001 375.299 502.014 364.009C501.944 363.919 501.85 363.85 501.743 363.809C501.637 363.769 501.521 363.759 501.408 363.781C501.296 363.802 501.192 363.855 501.108 363.932C501.024 364.01 500.963 364.109 500.932 364.219C500.13 367.102 498.654 375.95 503.851 392.506Z" fill="#1A80E5"/>
<path d="M502.549 370.02C502.857 371.081 503.048 372.173 503.118 373.276C503.374 375.299 503.653 378.101 503.874 381.205C504.095 384.309 504.2 387.123 504.2 389.169C504.269 390.273 504.203 391.382 504.002 392.471C503.801 391.386 503.704 390.284 503.711 389.18C503.56 386.855 503.374 384.216 503.176 381.251C502.979 378.287 502.793 375.601 502.63 373.322C502.495 372.227 502.467 371.121 502.549 370.02Z" fill="#263238"/>
<g opacity="0.3">
<path d="M503.851 392.506C503.851 392.506 511.001 375.299 502.014 364.009C501.944 363.919 501.85 363.85 501.743 363.809C501.637 363.769 501.521 363.759 501.408 363.781C501.296 363.802 501.192 363.855 501.108 363.932C501.024 364.01 500.963 364.109 500.932 364.219C500.13 367.102 498.654 375.95 503.851 392.506Z" fill="black"/>
</g>
<path d="M481.703 434C481.703 434 487.434 416.258 477.552 405.748C477.475 405.664 477.377 405.603 477.268 405.572C477.159 405.54 477.043 405.54 476.934 405.57C476.825 405.6 476.726 405.66 476.648 405.742C476.57 405.825 476.517 405.928 476.494 406.039C475.936 408.969 475.18 417.921 481.703 434Z" fill="#1A80E5"/>
<path d="M478.575 411.654C478.978 412.688 479.258 413.765 479.412 414.863C479.83 416.851 480.33 419.63 480.807 422.699C481.284 425.769 481.609 428.57 481.784 430.605C481.935 431.703 481.954 432.816 481.842 433.919C481.566 432.851 481.379 431.762 481.284 430.663C480.946 428.396 480.551 425.745 480.121 422.804C479.691 419.862 479.272 417.212 478.958 414.944C478.723 413.863 478.594 412.761 478.575 411.654Z" fill="#263238"/>
<g opacity="0.3">
<path d="M481.703 434C481.703 434 487.434 416.258 477.552 405.748C477.475 405.664 477.377 405.603 477.268 405.572C477.159 405.54 477.043 405.54 476.934 405.57C476.825 405.6 476.726 405.66 476.648 405.742C476.57 405.825 476.517 405.928 476.494 406.039C475.936 408.969 475.18 417.921 481.703 434Z" fill="black"/>
</g>
<path d="M512.966 371.474C512.966 371.474 528.231 360.777 526.697 346.43C526.685 346.318 526.642 346.21 526.573 346.12C526.504 346.03 526.412 345.961 526.306 345.92C526.2 345.879 526.085 345.868 525.973 345.889C525.862 345.909 525.758 345.96 525.673 346.035C523.453 348.035 517.5 354.685 512.966 371.474Z" fill="#1A80E5"/>
<g opacity="0.3">
<path d="M512.966 371.474C512.966 371.474 528.231 360.777 526.697 346.43C526.685 346.318 526.642 346.21 526.573 346.12C526.504 346.03 526.412 345.961 526.306 345.92C526.2 345.879 526.085 345.868 525.973 345.889C525.862 345.909 525.758 345.96 525.673 346.035C523.453 348.035 517.5 354.685 512.966 371.474Z" fill="black"/>
</g>
<path d="M523.929 351.79C523.626 352.855 523.201 353.881 522.662 354.848C521.79 356.685 520.523 359.196 519.046 361.94C517.57 364.684 516.151 367.114 515.058 368.834C514.521 369.8 513.869 370.698 513.117 371.508C513.525 370.486 514.031 369.504 514.628 368.579C515.721 366.567 517.011 364.219 518.43 361.603L522.22 354.627C522.696 353.628 523.268 352.678 523.929 351.79Z" fill="#263238"/>
<path d="M487.864 416.409C487.864 416.409 506.28 413.538 511.21 399.981C511.25 399.876 511.26 399.761 511.239 399.65C511.218 399.539 511.167 399.435 511.091 399.351C511.016 399.267 510.919 399.206 510.81 399.173C510.702 399.141 510.587 399.139 510.477 399.168C507.606 400.028 499.281 403.341 487.864 416.409Z" fill="#1A80E5"/>
<g opacity="0.3">
<path d="M487.864 416.409C487.864 416.409 506.28 413.538 511.21 399.981C511.25 399.876 511.26 399.761 511.239 399.65C511.218 399.539 511.167 399.435 511.091 399.351C511.016 399.267 510.919 399.206 510.81 399.173C510.702 399.141 510.587 399.139 510.477 399.168C507.606 400.028 499.281 403.341 487.864 416.409Z" fill="black"/>
</g>
<path d="M506.374 403.574C505.627 404.388 504.793 405.118 503.886 405.748C502.293 407.027 500.049 408.724 497.526 410.538C495.003 412.352 492.643 413.898 490.899 414.968C489.99 415.602 489.006 416.121 487.969 416.514C488.794 415.778 489.686 415.121 490.632 414.549L497.119 409.968L503.595 405.318C504.457 404.64 505.388 404.055 506.374 403.574Z" fill="#263238"/>
<path d="M470.285 450.312L464.914 486.47H498.398L494.061 450.312H470.285Z" fill="#455A64"/>
<path d="M495.41 461.508C495.41 461.706 489.364 461.857 481.912 461.857C474.459 461.857 468.402 461.706 468.402 461.508C472.896 461.163 477.405 461.047 481.912 461.159C486.414 461.047 490.919 461.164 495.41 461.508Z" fill="#263238"/>
<path d="M496.061 464.391C496.061 464.589 489.818 464.74 482.109 464.74C474.401 464.74 468.158 464.589 468.158 464.391C468.158 464.194 474.401 464.042 482.109 464.042C489.818 464.042 496.061 464.194 496.061 464.391Z" fill="#263238"/>
<path d="M365.858 99.5335C365.858 99.5335 365.544 99.5335 364.939 99.5335C364.056 99.4811 363.171 99.4811 362.288 99.5335C358.874 99.7334 355.519 100.52 352.371 101.859C347.382 103.95 343.039 107.333 339.791 111.66C337.789 114.361 336.299 117.407 335.397 120.647C333.362 128.364 334.461 136.572 338.454 143.481C339.543 145.394 340.871 147.16 342.407 148.736C343.957 150.406 345.762 151.819 347.755 152.922C349.801 154.073 352.117 154.655 354.464 154.607C356.883 154.578 359.203 153.64 360.963 151.98C361.814 151.089 362.48 150.038 362.925 148.889C363.37 147.74 363.584 146.515 363.556 145.283C363.538 142.724 362.725 140.233 361.23 138.156C358.219 133.913 353.336 131.064 348.139 129.529C342.75 128.016 337.059 127.936 331.63 129.297C328.858 130.018 326.187 131.08 323.677 132.459C321.143 133.889 318.842 135.696 316.853 137.819C316.376 138.365 315.829 138.865 315.399 139.47L314.086 141.237C313.287 142.482 312.572 143.78 311.946 145.12C310.703 147.842 309.853 150.727 309.423 153.689C308.579 159.605 309.384 165.64 311.749 171.128C314.009 176.491 317.945 180.978 322.968 183.917C325.403 185.309 328.122 186.132 330.92 186.324C333.664 186.478 336.393 185.823 338.768 184.441C341.126 183.138 342.989 181.095 344.07 178.627C345.089 176.196 345.16 173.47 344.267 170.989C343.349 168.595 341.846 166.469 339.896 164.804C338.005 163.169 335.824 161.903 333.467 161.072C328.869 159.622 323.95 159.537 319.306 160.828C314.96 162.005 310.968 164.228 307.679 167.303C304.684 170.173 302.402 173.705 301.017 177.616C298.596 184.401 298.707 191.834 301.331 198.543C303.378 203.553 306.672 207.955 310.9 211.332C313.563 213.468 316.529 215.196 319.701 216.46C320.794 216.867 321.643 217.169 322.224 217.332L323.084 217.611C323.084 217.611 322.782 217.552 322.201 217.39C321.342 217.16 320.496 216.884 319.666 216.564C316.453 215.357 313.448 213.654 310.76 211.518C306.461 208.143 303.102 203.719 301.006 198.671C298.335 191.898 298.199 184.389 300.622 177.523C302.009 173.553 304.316 169.967 307.354 167.059C310.689 163.923 314.74 161.648 319.155 160.432C323.897 159.109 328.921 159.19 333.618 160.665C336.044 161.511 338.289 162.809 340.233 164.49C342.26 166.21 343.819 168.413 344.767 170.896C345.724 173.488 345.682 176.343 344.651 178.907C343.504 181.471 341.559 183.596 339.105 184.964C336.642 186.399 333.814 187.086 330.967 186.94C328.1 186.74 325.317 185.889 322.828 184.452C317.691 181.472 313.656 176.908 311.33 171.442C308.915 165.853 308.086 159.707 308.935 153.677C309.379 150.656 310.248 147.712 311.516 144.934C312.155 143.565 312.885 142.241 313.702 140.97L315.05 139.168C315.481 138.551 316.039 138.005 316.527 137.47C318.563 135.307 320.915 133.465 323.503 132.006C326.071 130.6 328.805 129.522 331.641 128.797C337.174 127.41 342.974 127.495 348.465 129.041C353.766 130.622 358.731 133.517 361.858 137.912C363.43 140.076 364.284 142.678 364.3 145.353C364.356 147.985 363.365 150.532 361.544 152.433C359.684 154.179 357.236 155.163 354.685 155.189C352.244 155.244 349.833 154.638 347.709 153.433C345.668 152.307 343.823 150.858 342.244 149.143C340.688 147.532 339.341 145.731 338.233 143.783C334.169 136.746 333.065 128.382 335.164 120.531C336.095 117.254 337.62 114.176 339.663 111.45C342.971 107.091 347.388 103.699 352.452 101.626C355.626 100.313 359.007 99.5733 362.439 99.4405C363.33 99.3817 364.223 99.3817 365.113 99.4405L365.858 99.5335Z" fill="#263238"/>
<path d="M404.678 215.867H241.665V341.594H404.678V215.867Z" fill="#1A80E5"/>
<path d="M241.665 215.867L271.777 243.956H432.023L404.678 215.867H241.665Z" fill="#1A80E5"/>
<path d="M241.665 215.867L404.724 215.576H404.852L404.945 215.657L432.011 243.456L432.29 243.747L432.79 244.258H432.07L271.824 244.13H271.754L241.665 215.867L271.894 243.77H271.766L432.011 243.654L431.802 244.165L431.512 243.874L404.457 216.076L404.666 216.169L241.665 215.867Z" fill="#263238"/>
<path d="M290.635 273.847C289.752 273.879 288.917 274.257 288.309 274.898C287.702 275.54 287.37 276.394 287.386 277.278C287.402 278.161 287.765 279.003 288.395 279.622C289.025 280.241 289.874 280.588 290.757 280.588C291.641 280.588 292.489 280.241 293.12 279.622C293.75 279.003 294.112 278.161 294.128 277.278C294.144 276.394 293.813 275.54 293.205 274.898C292.598 274.257 291.763 273.879 290.879 273.847" fill="#263238"/>
<path d="M329.154 273.847C328.274 273.881 327.443 274.258 326.839 274.898C326.234 275.537 325.905 276.389 325.922 277.269C325.939 278.149 326.3 278.987 326.928 279.603C327.556 280.219 328.401 280.565 329.281 280.565C330.161 280.565 331.006 280.219 331.635 279.603C332.263 278.987 332.624 278.149 332.641 277.269C332.658 276.389 332.328 275.537 331.724 274.898C331.12 274.258 330.289 273.881 329.409 273.847" fill="#263238"/>
<path d="M329.374 303.936C328.702 301.368 327.61 298.928 326.142 296.716C324.509 294.35 322.413 292.341 319.98 290.81C317.045 288.862 313.622 287.778 310.101 287.682C306.579 287.585 303.102 288.48 300.064 290.264C297.556 291.664 295.354 293.554 293.588 295.821C291.999 297.951 290.777 300.333 289.973 302.867C289.982 302.677 290.013 302.49 290.066 302.308C290.177 301.785 290.321 301.268 290.496 300.762C291.133 298.895 292.063 297.14 293.251 295.565C295.004 293.192 297.233 291.212 299.797 289.752C302.913 287.892 306.493 286.957 310.121 287.056C313.748 287.154 317.273 288.283 320.283 290.31C322.758 291.901 324.872 293.992 326.491 296.449C327.595 298.089 328.431 299.894 328.967 301.797C329.11 302.313 329.223 302.837 329.305 303.366C329.345 303.554 329.368 303.745 329.374 303.936Z" fill="#263238"/>
<path opacity="0.5" d="M242.037 217.25L270.87 253.803H404.678V243.956H271.777L242.037 217.25Z" fill="black"/>
<path d="M372.531 341.315C372.369 341.315 372.229 319.446 372.229 292.484C372.229 265.523 372.369 243.654 372.531 243.654C372.694 243.654 372.845 265.511 372.845 292.484C372.845 319.457 372.706 341.315 372.531 341.315Z" fill="#263238"/>
<path d="M398.132 312.807H383.762V329.049H398.132V312.807Z" fill="#F5F5F5"/>
<path d="M241.665 215.867L208.205 243.956H241.665V215.867Z" fill="#1A80E5"/>
<g opacity="0.4">
<path d="M241.665 215.867L208.205 243.956H241.665V215.867Z" fill="black"/>
</g>
<path d="M409.491 341.594H222.063V486.156H409.491V341.594Z" fill="#1A80E5"/>
<path opacity="0.3" d="M409.491 341.594H222.063V486.156H409.491V341.594Z" fill="black"/>
<path d="M362.533 485.133C362.37 485.133 362.23 452.916 362.23 413.177C362.23 373.438 362.37 341.21 362.533 341.21C362.695 341.21 362.835 373.427 362.835 413.177C362.835 452.928 362.695 485.133 362.533 485.133Z" fill="#263238"/>
<path d="M393.598 453.253H379.228V469.495H393.598V453.253Z" fill="#F5F5F5"/>
<path d="M300.53 341.978H279.242V372.822H300.53V341.978Z" fill="#263238"/>
<path d="M300.53 454.881H279.242V485.726H300.53V454.881Z" fill="#263238"/>
<path d="M407.864 341.594H407.375H405.968L400.562 341.652L380.646 341.745L314.969 341.896L249.269 341.815L229.364 341.722L223.958 341.664L229.364 341.605L249.269 341.512L314.969 341.419L380.646 341.512L400.562 341.605L405.968 341.664H407.375L407.864 341.594Z" fill="#263238"/>
<path d="M86.6511 91.3137L66.2352 86.2911H66.3864C61.1149 89.6442 55.0191 91.475 48.7725 91.5811C45.0743 91.5979 41.3945 91.061 37.8553 89.9883C31.6331 87.9904 26.1128 84.2529 21.947 79.2177C17.7812 74.1824 15.1439 68.0598 14.3469 61.5735C13.7209 56.6679 14.1817 51.6847 15.6967 46.9771C17.2116 42.2695 19.7436 37.9528 23.1131 34.333C24.8844 32.3874 26.8696 30.648 29.031 29.1476C30.1238 28.4617 31.2167 27.7525 32.3561 27.1595L34.0884 26.3224L34.9488 25.9039L35.8556 25.5783C40.5241 23.7687 45.5321 23.0028 50.5281 23.3345C57.2236 23.7692 63.6406 26.1762 68.9704 30.2521C74.3001 34.3281 78.304 39.8905 80.4775 46.2383C81.685 49.7893 82.3208 53.5096 82.361 57.2601C82.3901 63.4931 80.6962 69.6129 77.4663 74.9438V74.7578C83.1399 85.0006 86 90.1743 86.6395 91.3137C85.9768 90.151 83.012 85.0703 77.1407 74.9321V74.8391V74.7461C80.2547 69.4668 81.863 63.4354 81.7913 57.3066C81.7373 53.6162 81.0936 49.9581 79.8846 46.4709C77.7347 40.2528 73.7983 34.8072 68.5681 30.8158C63.3379 26.8244 57.0465 24.4647 50.4815 24.032C45.584 23.7128 40.6758 24.4667 36.0998 26.241L35.2162 26.555L34.3674 26.9735L32.67 27.7874C31.5074 28.3803 30.4842 29.0662 29.403 29.7406C27.2833 31.2007 25.3335 32.8931 23.5898 34.7864C20.2819 38.3399 17.7956 42.5771 16.3068 47.1981C14.8181 51.819 14.3633 56.7108 14.9747 61.527C16.0526 70.3505 20.5795 78.3886 27.566 83.8844C30.6895 86.3594 34.2343 88.2499 38.0297 89.4651C41.5053 90.5395 45.123 91.0843 48.7609 91.0811C54.9326 91.015 60.9668 89.249 66.2004 85.9772H66.2701H66.398L86.6511 91.3137Z" fill="#263238"/>
<path d="M45.4707 42.2854L46.5054 59.3761C46.5467 60.0502 46.8331 60.686 47.3107 61.1635C47.7883 61.6411 48.424 61.9275 49.0981 61.9688C49.8074 62.0089 50.5051 61.7758 51.0479 61.3173C51.5906 60.8589 51.9372 60.21 52.0163 59.504L53.9114 42.3784C53.9444 42.072 53.9119 41.7621 53.816 41.4692C53.7202 41.1764 53.5631 40.9072 53.3553 40.6796C53.1476 40.4521 52.8938 40.2713 52.6108 40.1492C52.3278 40.0272 52.0222 39.9667 51.714 39.9718H47.5634C47.2722 39.9804 46.9857 40.0479 46.7212 40.1701C46.4566 40.2922 46.2195 40.4666 46.0241 40.6827C45.8286 40.8988 45.6788 41.1521 45.5837 41.4275C45.4886 41.703 45.4502 41.9948 45.4707 42.2854Z" fill="#1A80E5"/>
<path d="M53.609 71.514C53.3489 72.2947 52.8631 72.9808 52.2131 73.4855C51.5632 73.9903 50.7782 74.291 49.9573 74.3497C49.1365 74.4085 48.3167 74.2226 47.6015 73.8155C46.8863 73.4085 46.3078 72.7985 45.9391 72.0628C45.5704 71.3271 45.4281 70.4986 45.5302 69.682C45.6322 68.8654 45.974 68.0974 46.5124 67.475C47.0508 66.8527 47.7616 66.4039 48.555 66.1853C49.3484 65.9668 50.1887 65.9884 50.9698 66.2473C51.4892 66.4194 51.9695 66.6923 52.3833 67.0502C52.7971 67.4082 53.1363 67.8443 53.3814 68.3334C53.6266 68.8226 53.7728 69.3553 53.8119 69.9011C53.8509 70.4468 53.782 70.9949 53.609 71.514Z" fill="#1A80E5"/>
</svg>
