<svg width="155" height="24" viewBox="0 0 155 24" fill="none" xmlns="http://www.w3.org/2000/svg">
<g clip-path="url(#clip0_3_138)">
<path fill-rule="evenodd" clip-rule="evenodd" d="M1.33333 5.33333H5.7778V9.7778H10.2222V14.2222H14.6667V18.6667H1.33333V5.33333Z" fill="white"/>
</g>
<path d="M38.768 6.62C39.74 6.62 40.568 6.776 41.252 7.088C41.936 7.4 42.458 7.85 42.818 8.438C43.178 9.026 43.358 9.74 43.358 10.58C43.358 11.42 43.178 12.134 42.818 12.722C42.458 13.31 41.936 13.76 41.252 14.072C40.568 14.384 39.74 14.54 38.768 14.54H36.41V18.5H33.314V6.62H38.768ZM38.282 12.218C38.93 12.218 39.416 12.086 39.74 11.822C40.076 11.546 40.244 11.132 40.244 10.58C40.244 10.028 40.076 9.62 39.74 9.356C39.416 9.08 38.93 8.942 38.282 8.942H36.41V12.218H38.282ZM45.1214 18.5V9.5H47.8214L47.9474 11.444C48.1754 10.772 48.5114 10.25 48.9554 9.878C49.4114 9.506 49.9874 9.32 50.6834 9.32C50.9114 9.32 51.1034 9.338 51.2594 9.374C51.4274 9.41 51.5594 9.458 51.6554 9.518L51.3494 12.038C51.2294 11.99 51.0734 11.954 50.8814 11.93C50.7014 11.894 50.4794 11.876 50.2154 11.876C49.8554 11.876 49.5194 11.954 49.2074 12.11C48.8954 12.266 48.6434 12.5 48.4514 12.812C48.2714 13.112 48.1814 13.496 48.1814 13.964V18.5H45.1214ZM57.0343 9.32C57.9823 9.32 58.8103 9.506 59.5183 9.878C60.2383 10.238 60.7963 10.772 61.1923 11.48C61.6003 12.176 61.8043 13.016 61.8043 14C61.8043 14.984 61.6003 15.83 61.1923 16.538C60.7963 17.234 60.2383 17.768 59.5183 18.14C58.8103 18.5 57.9823 18.68 57.0343 18.68C56.1103 18.68 55.2883 18.5 54.5683 18.14C53.8483 17.768 53.2843 17.234 52.8763 16.538C52.4803 15.83 52.2823 14.984 52.2823 14C52.2823 13.016 52.4803 12.176 52.8763 11.48C53.2843 10.772 53.8483 10.238 54.5683 9.878C55.2883 9.506 56.1103 9.32 57.0343 9.32ZM57.0343 11.498C56.6863 11.498 56.3863 11.582 56.1343 11.75C55.8823 11.918 55.6903 12.188 55.5583 12.56C55.4263 12.932 55.3603 13.412 55.3603 14C55.3603 14.588 55.4263 15.068 55.5583 15.44C55.6903 15.8 55.8823 16.07 56.1343 16.25C56.3863 16.418 56.6863 16.502 57.0343 16.502C57.3943 16.502 57.7003 16.418 57.9523 16.25C58.2043 16.07 58.3963 15.8 58.5283 15.44C58.6603 15.068 58.7263 14.588 58.7263 14C58.7263 13.412 58.6603 12.932 58.5283 12.56C58.3963 12.188 58.2043 11.918 57.9523 11.75C57.7003 11.582 57.3943 11.498 57.0343 11.498ZM63.5257 22.28V9.5H66.2797L66.4417 12.758L66.0817 12.38C66.1657 11.78 66.3517 11.252 66.6397 10.796C66.9277 10.34 67.2997 9.98 67.7557 9.716C68.2117 9.452 68.7337 9.32 69.3217 9.32C70.0657 9.32 70.7137 9.506 71.2657 9.878C71.8177 10.238 72.2437 10.766 72.5437 11.462C72.8557 12.146 73.0117 12.98 73.0117 13.964C73.0117 14.948 72.8557 15.794 72.5437 16.502C72.2317 17.21 71.7937 17.75 71.2297 18.122C70.6777 18.494 70.0297 18.68 69.2857 18.68C68.4697 18.68 67.8097 18.44 67.3057 17.96C66.8017 17.468 66.4657 16.85 66.2977 16.106L66.5857 15.674V22.28H63.5257ZM68.2417 16.43C68.7697 16.43 69.1837 16.238 69.4837 15.854C69.7837 15.458 69.9337 14.84 69.9337 14C69.9337 13.16 69.7837 12.548 69.4837 12.164C69.1957 11.768 68.7877 11.57 68.2597 11.57C67.9237 11.57 67.6297 11.666 67.3777 11.858C67.1257 12.038 66.9277 12.308 66.7837 12.668C66.6517 13.028 66.5857 13.472 66.5857 14C66.5857 14.504 66.6457 14.942 66.7657 15.314C66.8977 15.674 67.0897 15.95 67.3417 16.142C67.5937 16.334 67.8937 16.43 68.2417 16.43ZM79.2029 18.68C78.2069 18.68 77.3429 18.494 76.6109 18.122C75.8909 17.75 75.3329 17.216 74.9369 16.52C74.5409 15.824 74.3429 14.984 74.3429 14C74.3429 13.016 74.5409 12.176 74.9369 11.48C75.3329 10.784 75.8849 10.25 76.5929 9.878C77.3129 9.506 78.1349 9.32 79.0589 9.32C80.0069 9.32 80.8109 9.506 81.4709 9.878C82.1429 10.238 82.6529 10.742 83.0009 11.39C83.3489 12.026 83.5229 12.758 83.5229 13.586C83.5229 13.802 83.5169 14.018 83.5049 14.234C83.4929 14.45 83.4749 14.63 83.4509 14.774H76.3229V13.136H82.1009L80.6429 13.694C80.6429 12.974 80.5109 12.422 80.2469 12.038C79.9949 11.654 79.5989 11.462 79.0589 11.462C78.6749 11.462 78.3449 11.552 78.0689 11.732C77.8049 11.912 77.6009 12.194 77.4569 12.578C77.3249 12.962 77.2589 13.454 77.2589 14.054C77.2589 14.642 77.3369 15.122 77.4929 15.494C77.6489 15.854 77.8709 16.118 78.1589 16.286C78.4469 16.442 78.7949 16.52 79.2029 16.52C79.6589 16.52 80.0189 16.43 80.2829 16.25C80.5589 16.07 80.7629 15.818 80.8949 15.494L83.3429 16.304C83.1749 16.82 82.8809 17.258 82.4609 17.618C82.0529 17.966 81.5609 18.23 80.9849 18.41C80.4209 18.59 79.8269 18.68 79.2029 18.68ZM85.2347 18.5V9.5H87.9347L88.0607 11.444C88.2887 10.772 88.6247 10.25 89.0687 9.878C89.5247 9.506 90.1007 9.32 90.7967 9.32C91.0247 9.32 91.2167 9.338 91.3727 9.374C91.5407 9.41 91.6727 9.458 91.7687 9.518L91.4627 12.038C91.3427 11.99 91.1867 11.954 90.9947 11.93C90.8147 11.894 90.5927 11.876 90.3287 11.876C89.9687 11.876 89.6327 11.954 89.3207 12.11C89.0087 12.266 88.7567 12.5 88.5647 12.812C88.3847 13.112 88.2947 13.496 88.2947 13.964V18.5H85.2347ZM96.5026 6.638V15.296C96.5026 15.728 96.6046 16.04 96.8086 16.232C97.0246 16.412 97.3186 16.502 97.6906 16.502C97.9786 16.502 98.2246 16.472 98.4286 16.412C98.6446 16.34 98.8366 16.238 99.0046 16.106L99.3286 17.996C99.0286 18.212 98.6506 18.38 98.1946 18.5C97.7386 18.62 97.2706 18.68 96.7906 18.68C96.1066 18.68 95.5126 18.584 95.0086 18.392C94.5166 18.2 94.1326 17.894 93.8566 17.474C93.5926 17.054 93.4546 16.496 93.4426 15.8V7.484L96.5026 6.638ZM99.1846 9.5V11.678H91.8946V9.5H99.1846ZM109.652 9.5L106.376 18.5C106.04 19.448 105.674 20.204 105.278 20.768C104.882 21.332 104.414 21.74 103.874 21.992C103.334 22.244 102.686 22.37 101.93 22.37C101.426 22.37 100.964 22.316 100.544 22.208C100.124 22.1 99.758 21.95 99.446 21.758L100.058 19.688C100.274 19.844 100.502 19.952 100.742 20.012C100.982 20.084 101.288 20.12 101.66 20.12C102.008 20.12 102.29 20.06 102.506 19.94C102.734 19.82 102.914 19.592 103.046 19.256L103.28 18.698L102.236 16.25L99.536 9.5H102.902L104.288 14.63L104.72 16.538L105.224 14.558L106.61 9.5H109.652ZM121.157 6.62C122.129 6.62 122.957 6.776 123.641 7.088C124.325 7.4 124.847 7.85 125.207 8.438C125.567 9.026 125.747 9.74 125.747 10.58C125.747 11.42 125.567 12.134 125.207 12.722C124.847 13.31 124.325 13.76 123.641 14.072C122.957 14.384 122.129 14.54 121.157 14.54H118.799V18.5H115.703V6.62H121.157ZM120.671 12.218C121.319 12.218 121.805 12.086 122.129 11.822C122.465 11.546 122.633 11.132 122.633 10.58C122.633 10.028 122.465 9.62 122.129 9.356C121.805 9.08 121.319 8.942 120.671 8.942H118.799V12.218H120.671ZM127.51 18.5V9.5H130.21L130.336 11.444C130.564 10.772 130.9 10.25 131.344 9.878C131.8 9.506 132.376 9.32 133.072 9.32C133.3 9.32 133.492 9.338 133.648 9.374C133.816 9.41 133.948 9.458 134.044 9.518L133.738 12.038C133.618 11.99 133.462 11.954 133.27 11.93C133.09 11.894 132.868 11.876 132.604 11.876C132.244 11.876 131.908 11.954 131.596 12.11C131.284 12.266 131.032 12.5 130.84 12.812C130.66 13.112 130.57 13.496 130.57 13.964V18.5H127.51ZM139.423 9.32C140.371 9.32 141.199 9.506 141.907 9.878C142.627 10.238 143.185 10.772 143.581 11.48C143.989 12.176 144.193 13.016 144.193 14C144.193 14.984 143.989 15.83 143.581 16.538C143.185 17.234 142.627 17.768 141.907 18.14C141.199 18.5 140.371 18.68 139.423 18.68C138.499 18.68 137.677 18.5 136.957 18.14C136.237 17.768 135.673 17.234 135.265 16.538C134.869 15.83 134.671 14.984 134.671 14C134.671 13.016 134.869 12.176 135.265 11.48C135.673 10.772 136.237 10.238 136.957 9.878C137.677 9.506 138.499 9.32 139.423 9.32ZM139.423 11.498C139.075 11.498 138.775 11.582 138.523 11.75C138.271 11.918 138.079 12.188 137.947 12.56C137.815 12.932 137.749 13.412 137.749 14C137.749 14.588 137.815 15.068 137.947 15.44C138.079 15.8 138.271 16.07 138.523 16.25C138.775 16.418 139.075 16.502 139.423 16.502C139.783 16.502 140.089 16.418 140.341 16.25C140.593 16.07 140.785 15.8 140.917 15.44C141.049 15.068 141.115 14.588 141.115 14C141.115 13.412 141.049 12.932 140.917 12.56C140.785 12.188 140.593 11.918 140.341 11.75C140.089 11.582 139.783 11.498 139.423 11.498ZM149.694 18.68C148.794 18.68 147.954 18.536 147.174 18.248C146.406 17.948 145.77 17.522 145.266 16.97L146.706 15.278C147.006 15.662 147.402 15.986 147.894 16.25C148.398 16.502 148.956 16.628 149.568 16.628C149.94 16.628 150.246 16.574 150.486 16.466C150.726 16.358 150.846 16.19 150.846 15.962C150.846 15.794 150.786 15.662 150.666 15.566C150.546 15.458 150.306 15.368 149.946 15.296L148.686 15.044C147.558 14.816 146.754 14.48 146.274 14.036C145.806 13.58 145.572 12.986 145.572 12.254C145.572 11.762 145.722 11.294 146.022 10.85C146.322 10.394 146.784 10.028 147.408 9.752C148.032 9.464 148.83 9.32 149.802 9.32C150.714 9.32 151.518 9.452 152.214 9.716C152.91 9.98 153.462 10.364 153.87 10.868L152.412 12.524C152.124 12.164 151.752 11.882 151.296 11.678C150.84 11.474 150.384 11.372 149.928 11.372C149.64 11.372 149.394 11.402 149.19 11.462C148.998 11.51 148.854 11.582 148.758 11.678C148.662 11.774 148.614 11.894 148.614 12.038C148.614 12.194 148.686 12.332 148.83 12.452C148.986 12.56 149.268 12.656 149.676 12.74L151.314 13.064C152.238 13.232 152.904 13.538 153.312 13.982C153.72 14.426 153.924 14.96 153.924 15.584C153.924 16.172 153.768 16.7 153.456 17.168C153.144 17.636 152.676 18.008 152.052 18.284C151.428 18.548 150.642 18.68 149.694 18.68Z" fill="white"/>
<defs>
<clipPath id="clip0_3_138">
<rect width="16" height="16" fill="white" transform="translate(0 4)"/>
</clipPath>
</defs>
</svg>
