<svg width="246" height="37" viewBox="0 0 246 37" fill="none" xmlns="http://www.w3.org/2000/svg">
<g clip-path="url(#clip0_5_3347)">
<path fill-rule="evenodd" clip-rule="evenodd" d="M2.11594 7.92039H9.16912V14.9736H16.2222V22.0266H23.2754V29.0798H2.11594V7.92039Z" fill="#1A80E6"/>
</g>
<path d="M61.5232 9.14696C63.0658 9.14696 64.3798 9.39452 65.4652 9.88965C66.5507 10.3848 67.3791 11.0989 67.9504 12.032C68.5217 12.9652 68.8074 14.0983 68.8074 15.4313C68.8074 16.7643 68.5217 17.8974 67.9504 18.8306C67.3791 19.7637 66.5507 20.4778 65.4652 20.973C64.3798 21.4681 63.0658 21.7157 61.5232 21.7157H57.7812V28H52.868V9.14696H61.5232ZM60.752 18.0307C61.7803 18.0307 62.5516 17.8213 63.0658 17.4023C63.599 16.9643 63.8656 16.3073 63.8656 15.4313C63.8656 14.5553 63.599 13.9078 63.0658 13.4889C62.5516 13.0509 61.7803 12.8319 60.752 12.8319H57.7812V18.0307H60.752ZM71.6059 28V13.7174H75.8906L76.0906 16.8024C76.4524 15.736 76.9856 14.9076 77.6903 14.3173C78.4139 13.7269 79.328 13.4317 80.4325 13.4317C80.7943 13.4317 81.099 13.4603 81.3466 13.5174C81.6132 13.5746 81.8227 13.6507 81.975 13.746L81.4894 17.7451C81.299 17.6689 81.0514 17.6118 80.7467 17.5737C80.4611 17.5166 80.1088 17.488 79.6898 17.488C79.1185 17.488 78.5853 17.6118 78.0902 17.8593C77.595 18.1069 77.1951 18.4783 76.8904 18.9734C76.6048 19.4495 76.462 20.0589 76.462 20.8016V28H71.6059ZM90.5111 13.4317C92.0156 13.4317 93.3296 13.7269 94.4531 14.3173C95.5957 14.8886 96.4813 15.736 97.1097 16.8596C97.7572 17.9641 98.0809 19.2971 98.0809 20.8587C98.0809 22.4203 97.7572 23.7628 97.1097 24.8864C96.4813 25.9909 95.5957 26.8383 94.4531 27.4287C93.3296 28 92.0156 28.2857 90.5111 28.2857C89.0448 28.2857 87.7403 28 86.5977 27.4287C85.4551 26.8383 84.56 25.9909 83.9126 24.8864C83.2841 23.7628 82.9699 22.4203 82.9699 20.8587C82.9699 19.2971 83.2841 17.9641 83.9126 16.8596C84.56 15.736 85.4551 14.8886 86.5977 14.3173C87.7403 13.7269 89.0448 13.4317 90.5111 13.4317ZM90.5111 16.8881C89.9589 16.8881 89.4828 17.0214 89.0829 17.288C88.683 17.5547 88.3783 17.9831 88.1688 18.5735C87.9593 19.1638 87.8546 19.9256 87.8546 20.8587C87.8546 21.7918 87.9593 22.5536 88.1688 23.1439C88.3783 23.7152 88.683 24.1437 89.0829 24.4293C89.4828 24.696 89.9589 24.8293 90.5111 24.8293C91.0824 24.8293 91.568 24.696 91.968 24.4293C92.3679 24.1437 92.6726 23.7152 92.882 23.1439C93.0915 22.5536 93.1963 21.7918 93.1963 20.8587C93.1963 19.9256 93.0915 19.1638 92.882 18.5735C92.6726 17.9831 92.3679 17.5547 91.968 17.288C91.568 17.0214 91.0824 16.8881 90.5111 16.8881ZM100.813 33.9987V13.7174H105.183L105.44 18.8877L104.869 18.2878C105.002 17.3357 105.297 16.4977 105.754 15.7741C106.212 15.0504 106.802 14.4791 107.526 14.0602C108.249 13.6412 109.078 13.4317 110.011 13.4317C111.191 13.4317 112.22 13.7269 113.096 14.3173C113.972 14.8886 114.648 15.7265 115.124 16.831C115.619 17.9165 115.867 19.24 115.867 20.8016C115.867 22.3631 115.619 23.7057 115.124 24.8293C114.629 25.9528 113.934 26.8098 113.039 27.4001C112.163 27.9905 111.134 28.2857 109.954 28.2857C108.659 28.2857 107.611 27.9048 106.811 27.143C106.012 26.3623 105.478 25.3815 105.212 24.2008L105.669 23.5153V33.9987H100.813ZM108.297 24.715C109.135 24.715 109.792 24.4103 110.268 23.8009C110.744 23.1725 110.982 22.1917 110.982 20.8587C110.982 19.5257 110.744 18.5544 110.268 17.945C109.811 17.3166 109.163 17.0024 108.325 17.0024C107.792 17.0024 107.326 17.1547 106.926 17.4594C106.526 17.7451 106.212 18.1736 105.983 18.7449C105.774 19.3162 105.669 20.0208 105.669 20.8587C105.669 21.6585 105.764 22.3536 105.954 22.944C106.164 23.5153 106.469 23.9533 106.869 24.258C107.268 24.5627 107.745 24.715 108.297 24.715ZM125.692 28.2857C124.111 28.2857 122.74 27.9905 121.578 27.4001C120.436 26.8098 119.55 25.9623 118.922 24.8578C118.293 23.7533 117.979 22.4203 117.979 20.8587C117.979 19.2971 118.293 17.9641 118.922 16.8596C119.55 15.755 120.426 14.9076 121.55 14.3173C122.692 13.7269 123.997 13.4317 125.463 13.4317C126.968 13.4317 128.243 13.7269 129.291 14.3173C130.357 14.8886 131.167 15.6884 131.719 16.7167C132.271 17.726 132.547 18.8877 132.547 20.2017C132.547 20.5445 132.538 20.8873 132.519 21.23C132.5 21.5728 132.471 21.8585 132.433 22.087H121.121V19.4876H130.291L127.977 20.3731C127.977 19.2305 127.767 18.3545 127.348 17.7451C126.949 17.1357 126.32 16.831 125.463 16.831C124.854 16.831 124.33 16.9738 123.892 17.2595C123.473 17.5451 123.149 17.9927 122.921 18.602C122.711 19.2114 122.607 19.9922 122.607 20.9444C122.607 21.8775 122.73 22.6393 122.978 23.2296C123.226 23.8009 123.578 24.2199 124.035 24.4865C124.492 24.734 125.044 24.8578 125.692 24.8578C126.415 24.8578 126.987 24.715 127.406 24.4293C127.844 24.1437 128.167 23.7438 128.377 23.2296L132.262 24.515C131.995 25.3339 131.528 26.029 130.862 26.6003C130.214 27.1526 129.434 27.5715 128.52 27.8572C127.625 28.1428 126.682 28.2857 125.692 28.2857ZM135.264 28V13.7174H139.549L139.749 16.8024C140.11 15.736 140.644 14.9076 141.348 14.3173C142.072 13.7269 142.986 13.4317 144.091 13.4317C144.452 13.4317 144.757 13.4603 145.005 13.5174C145.271 13.5746 145.481 13.6507 145.633 13.746L145.147 17.7451C144.957 17.6689 144.709 17.6118 144.405 17.5737C144.119 17.5166 143.767 17.488 143.348 17.488C142.777 17.488 142.243 17.6118 141.748 17.8593C141.253 18.1069 140.853 18.4783 140.548 18.9734C140.263 19.4495 140.12 20.0589 140.12 20.8016V28H135.264ZM153.146 9.17552V22.9154C153.146 23.601 153.307 24.0961 153.631 24.4008C153.974 24.6864 154.44 24.8293 155.031 24.8293C155.488 24.8293 155.878 24.7817 156.202 24.6864C156.545 24.5722 156.849 24.4103 157.116 24.2008L157.63 27.2002C157.154 27.543 156.554 27.8096 155.831 28C155.107 28.1904 154.364 28.2857 153.603 28.2857C152.517 28.2857 151.574 28.1333 150.775 27.8286C149.994 27.5239 149.384 27.0383 148.946 26.3718C148.527 25.7053 148.308 24.8197 148.289 23.7152V10.5181L153.146 9.17552ZM157.402 13.7174V17.1738H145.833V13.7174H157.402ZM174.013 13.7174L168.814 28C168.281 29.5044 167.7 30.7042 167.072 31.5992C166.443 32.4943 165.701 33.1417 164.844 33.5417C163.987 33.9416 162.958 34.1415 161.759 34.1415C160.959 34.1415 160.226 34.0558 159.559 33.8844C158.893 33.713 158.312 33.475 157.817 33.1703L158.788 29.8853C159.131 30.1329 159.492 30.3043 159.873 30.3995C160.254 30.5137 160.74 30.5709 161.33 30.5709C161.882 30.5709 162.33 30.4757 162.673 30.2852C163.034 30.0948 163.32 29.733 163.53 29.1997L163.901 28.3142L162.244 24.4293L157.959 13.7174H163.301L165.501 21.8585L166.186 24.8864L166.986 21.7442L169.186 13.7174H174.013ZM192.27 9.14696C193.813 9.14696 195.127 9.39452 196.212 9.88965C197.298 10.3848 198.126 11.0989 198.698 12.032C199.269 12.9652 199.555 14.0983 199.555 15.4313C199.555 16.7643 199.269 17.8974 198.698 18.8306C198.126 19.7637 197.298 20.4778 196.212 20.973C195.127 21.4681 193.813 21.7157 192.27 21.7157H188.528V28H183.615V9.14696H192.27ZM191.499 18.0307C192.528 18.0307 193.299 17.8213 193.813 17.4023C194.346 16.9643 194.613 16.3073 194.613 15.4313C194.613 14.5553 194.346 13.9078 193.813 13.4889C193.299 13.0509 192.528 12.8319 191.499 12.8319H188.528V18.0307H191.499ZM202.353 28V13.7174H206.638L206.838 16.8024C207.2 15.736 207.733 14.9076 208.437 14.3173C209.161 13.7269 210.075 13.4317 211.18 13.4317C211.542 13.4317 211.846 13.4603 212.094 13.5174C212.36 13.5746 212.57 13.6507 212.722 13.746L212.237 17.7451C212.046 17.6689 211.799 17.6118 211.494 17.5737C211.208 17.5166 210.856 17.488 210.437 17.488C209.866 17.488 209.333 17.6118 208.837 17.8593C208.342 18.1069 207.942 18.4783 207.638 18.9734C207.352 19.4495 207.209 20.0589 207.209 20.8016V28H202.353ZM221.258 13.4317C222.763 13.4317 224.077 13.7269 225.2 14.3173C226.343 14.8886 227.228 15.736 227.857 16.8596C228.504 17.9641 228.828 19.2971 228.828 20.8587C228.828 22.4203 228.504 23.7628 227.857 24.8864C227.228 25.9909 226.343 26.8383 225.2 27.4287C224.077 28 222.763 28.2857 221.258 28.2857C219.792 28.2857 218.488 28 217.345 27.4287C216.202 26.8383 215.307 25.9909 214.66 24.8864C214.031 23.7628 213.717 22.4203 213.717 20.8587C213.717 19.2971 214.031 17.9641 214.66 16.8596C215.307 15.736 216.202 14.8886 217.345 14.3173C218.488 13.7269 219.792 13.4317 221.258 13.4317ZM221.258 16.8881C220.706 16.8881 220.23 17.0214 219.83 17.288C219.43 17.5547 219.125 17.9831 218.916 18.5735C218.707 19.1638 218.602 19.9256 218.602 20.8587C218.602 21.7918 218.707 22.5536 218.916 23.1439C219.125 23.7152 219.43 24.1437 219.83 24.4293C220.23 24.696 220.706 24.8293 221.258 24.8293C221.83 24.8293 222.315 24.696 222.715 24.4293C223.115 24.1437 223.42 23.7152 223.629 23.1439C223.839 22.5536 223.943 21.7918 223.943 20.8587C223.943 19.9256 223.839 19.1638 223.629 18.5735C223.42 17.9831 223.115 17.5547 222.715 17.288C222.315 17.0214 221.83 16.8881 221.258 16.8881ZM237.559 28.2857C236.13 28.2857 234.797 28.0571 233.559 27.6001C232.341 27.124 231.331 26.448 230.532 25.572L232.817 22.8868C233.293 23.4962 233.921 24.0104 234.702 24.4293C235.502 24.8293 236.387 25.0292 237.359 25.0292C237.949 25.0292 238.435 24.9435 238.815 24.7721C239.196 24.6007 239.387 24.3341 239.387 23.9723C239.387 23.7057 239.292 23.4962 239.101 23.3439C238.911 23.1725 238.53 23.0297 237.959 22.9154L235.959 22.5155C234.169 22.1537 232.893 21.6204 232.131 20.9158C231.389 20.1922 231.017 19.2495 231.017 18.0879C231.017 17.3071 231.255 16.5644 231.731 15.8598C232.207 15.1361 232.941 14.5553 233.931 14.1173C234.921 13.6603 236.187 13.4317 237.73 13.4317C239.177 13.4317 240.453 13.6412 241.558 14.0602C242.662 14.4791 243.538 15.0885 244.186 15.8883L241.872 18.5163C241.415 17.945 240.825 17.4975 240.101 17.1738C239.377 16.85 238.654 16.6882 237.93 16.6882C237.473 16.6882 237.083 16.7358 236.759 16.831C236.454 16.9072 236.226 17.0214 236.073 17.1738C235.921 17.3261 235.845 17.5166 235.845 17.7451C235.845 17.9927 235.959 18.2117 236.187 18.4021C236.435 18.5735 236.883 18.7258 237.53 18.8591L240.129 19.3733C241.596 19.6399 242.653 20.1255 243.3 20.8301C243.948 21.5347 244.271 22.3822 244.271 23.3724C244.271 24.3056 244.024 25.1435 243.529 25.8862C243.034 26.6289 242.291 27.2192 241.301 27.6572C240.31 28.0762 239.063 28.2857 237.559 28.2857Z" fill="#1A80E6"/>
<defs>
<clipPath id="clip0_5_3347">
<rect width="25.3913" height="25.3913" fill="white" transform="translate(0 5.80444)"/>
</clipPath>
</defs>
</svg>
