<svg width="21" height="20" viewBox="0 0 21 20" fill="none" xmlns="http://www.w3.org/2000/svg">
<path d="M18.1903 8.33333H6.5236V5.83333C6.5236 4.91417 7.2711 4.16667 8.19027 4.16667C9.10943 4.16667 9.85693 4.91417 9.85693 5.83333H11.5236C11.5236 3.995 10.0286 2.5 8.19027 2.5C6.35193 2.5 4.85693 3.995 4.85693 5.83333V8.33333H3.19027C2.96925 8.33333 2.75729 8.42113 2.60101 8.57741C2.44473 8.73369 2.35693 8.94565 2.35693 9.16667V10.8333C2.35693 13.005 3.75193 14.8525 5.69027 15.5417V18.3333H7.35693V15.8333H14.0236V18.3333H15.6903V15.5417C17.6286 14.8525 19.0236 13.005 19.0236 10.8333V9.16667C19.0236 8.94565 18.9358 8.73369 18.7795 8.57741C18.6232 8.42113 18.4113 8.33333 18.1903 8.33333ZM17.3569 10.8333C17.3569 12.6717 15.8619 14.1667 14.0236 14.1667H7.35693C5.5186 14.1667 4.0236 12.6717 4.0236 10.8333V10H17.3569V10.8333Z" fill="#1A80E6"/>
</svg>
