<svg width="21" height="20" viewBox="0 0 21 20" fill="none" xmlns="http://www.w3.org/2000/svg">
<path d="M18.1903 8.98317V6.6665C18.1903 5.2915 17.0653 4.1665 15.6903 4.1665H12.3569C11.7153 4.1665 11.1319 4.4165 10.6903 4.8165C10.2486 4.4165 9.66527 4.1665 9.0236 4.1665H5.69027C4.31527 4.1665 3.19027 5.2915 3.19027 6.6665V8.98317C2.68193 9.4415 2.35693 10.0998 2.35693 10.8332V15.8332H4.0236V14.1665H17.3569V15.8332H19.0236V10.8332C19.0236 10.0998 18.6986 9.4415 18.1903 8.98317ZM12.3569 5.83317H15.6903C16.1486 5.83317 16.5236 6.20817 16.5236 6.6665V8.33317H11.5236V6.6665C11.5236 6.20817 11.8986 5.83317 12.3569 5.83317ZM4.85693 6.6665C4.85693 6.20817 5.23193 5.83317 5.69027 5.83317H9.0236C9.48193 5.83317 9.85693 6.20817 9.85693 6.6665V8.33317H4.85693V6.6665ZM4.0236 12.4998V10.8332C4.0236 10.3748 4.3986 9.99984 4.85693 9.99984H16.5236C16.9819 9.99984 17.3569 10.3748 17.3569 10.8332V12.4998H4.0236Z" fill="#1A80E6"/>
</svg>
