<svg width="35" height="35" viewBox="0 0 35 35" fill="none" xmlns="http://www.w3.org/2000/svg">
<path d="M11.375 2.91669H23.625C28.2916 2.91669 32.0833 6.70835 32.0833 11.375V23.625C32.0833 25.8683 31.1921 28.0197 29.6059 29.606C28.0197 31.1922 25.8682 32.0834 23.625 32.0834H11.375C6.70829 32.0834 2.91663 28.2917 2.91663 23.625V11.375C2.91663 9.13173 3.80777 6.98032 5.39401 5.39408C6.98026 3.80783 9.13167 2.91669 11.375 2.91669ZM11.0833 5.83335C9.69091 5.83335 8.35555 6.38648 7.37098 7.37104C6.38642 8.35561 5.83329 9.69097 5.83329 11.0834V23.9167C5.83329 26.8188 8.18121 29.1667 11.0833 29.1667H23.9166C25.309 29.1667 26.6444 28.6136 27.6289 27.629C28.6135 26.6444 29.1666 25.3091 29.1666 23.9167V11.0834C29.1666 8.18127 26.8187 5.83335 23.9166 5.83335H11.0833ZM25.1562 8.02085C25.6397 8.02085 26.1033 8.21291 26.4452 8.55477C26.7871 8.89664 26.9791 9.3603 26.9791 9.84377C26.9791 10.3272 26.7871 10.7909 26.4452 11.1328C26.1033 11.4746 25.6397 11.6667 25.1562 11.6667C24.6727 11.6667 24.2091 11.4746 23.8672 11.1328C23.5253 10.7909 23.3333 10.3272 23.3333 9.84377C23.3333 9.3603 23.5253 8.89664 23.8672 8.55477C24.2091 8.21291 24.6727 8.02085 25.1562 8.02085ZM17.5 10.2084C19.4338 10.2084 21.2885 10.9766 22.6559 12.344C24.0234 13.7115 24.7916 15.5661 24.7916 17.5C24.7916 19.4339 24.0234 21.2886 22.6559 22.656C21.2885 24.0235 19.4338 24.7917 17.5 24.7917C15.5661 24.7917 13.7114 24.0235 12.344 22.656C10.9765 21.2886 10.2083 19.4339 10.2083 17.5C10.2083 15.5661 10.9765 13.7115 12.344 12.344C13.7114 10.9766 15.5661 10.2084 17.5 10.2084ZM17.5 13.125C16.3396 13.125 15.2268 13.586 14.4064 14.4064C13.5859 15.2269 13.125 16.3397 13.125 17.5C13.125 18.6603 13.5859 19.7731 14.4064 20.5936C15.2268 21.4141 16.3396 21.875 17.5 21.875C18.6603 21.875 19.7731 21.4141 20.5936 20.5936C21.414 19.7731 21.875 18.6603 21.875 17.5C21.875 16.3397 21.414 15.2269 20.5936 14.4064C19.7731 13.586 18.6603 13.125 17.5 13.125Z" fill="#1A80E6"/>
</svg>
