<svg width="35" height="35" viewBox="0 0 35 35" fill="none" xmlns="http://www.w3.org/2000/svg">
<path d="M32.7542 8.74998C31.6313 9.2604 30.4208 9.59581 29.1667 9.75623C30.45 8.98331 31.4417 7.75831 31.9083 6.2854C30.6979 7.01456 29.3563 7.52498 27.9417 7.81665C26.7896 6.56248 25.1709 5.83331 23.3334 5.83331C19.9063 5.83331 17.1063 8.63331 17.1063 12.0896C17.1063 12.5854 17.1646 13.0666 17.2667 13.5187C12.075 13.2562 7.4521 10.7625 4.37502 6.9854C3.83543 7.90415 3.52918 8.98331 3.52918 10.1208C3.52918 12.2937 4.62293 14.2187 6.3146 15.3125C5.27918 15.3125 4.31668 15.0208 3.47085 14.5833V14.6271C3.47085 17.6604 5.62918 20.1979 8.48752 20.7666C7.56999 21.0188 6.60632 21.0538 5.67293 20.8687C6.06903 22.1119 6.84476 23.1997 7.89108 23.9793C8.93741 24.7588 10.2017 25.1908 11.5063 25.2146C9.29495 26.9653 6.55378 27.9116 3.73335 27.8979C3.23752 27.8979 2.74168 27.8687 2.24585 27.8104C5.01668 29.5896 8.31252 30.625 11.8417 30.625C23.3334 30.625 29.6479 21.0875 29.6479 12.8187C29.6479 12.5416 29.6479 12.2791 29.6333 12.0021C30.8583 11.1271 31.9083 10.0187 32.7542 8.74998Z" fill="#1A80E6"/>
</svg>
