<svg width="37" height="37" viewBox="0 0 37 37" fill="none" xmlns="http://www.w3.org/2000/svg">
<path d="M25.5917 8.9725C24.5378 7.76942 23.9571 6.22437 23.9575 4.625H19.1937V23.7417C19.157 24.7762 18.7203 25.756 17.9755 26.4749C17.2307 27.1939 16.236 27.5957 15.2008 27.5958C13.0117 27.5958 11.1925 25.8075 11.1925 23.5875C11.1925 20.9358 13.7517 18.9471 16.3879 19.7642V14.8925C11.0692 14.1833 6.41333 18.315 6.41333 23.5875C6.41333 28.7212 10.6683 32.375 15.1854 32.375C20.0262 32.375 23.9575 28.4438 23.9575 23.5875V13.8904C25.8892 15.2777 28.2084 16.022 30.5867 16.0179V11.2542C30.5867 11.2542 27.6883 11.3929 25.5917 8.9725Z" fill="#1A80E6"/>
</svg>
